<?xml version="1.0" encoding="UTF-8" standalone="no"?>
<svg
   xmlns:dc="http://purl.org/dc/elements/1.1/"
   xmlns:cc="http://creativecommons.org/ns#"
   xmlns:rdf="http://www.w3.org/1999/02/22-rdf-syntax-ns#"
   xmlns:svg="http://www.w3.org/2000/svg"
   xmlns="http://www.w3.org/2000/svg"
   xmlns:sodipodi="http://sodipodi.sourceforge.net/DTD/sodipodi-0.dtd"
   xmlns:inkscape="http://www.inkscape.org/namespaces/inkscape"
   width="1327.165"
   height="556.32898"
   viewBox="0 0 1327.165 556.32898"
   version="1.1"
   xml:space="preserve"
   style="clip-rule:evenodd;fill-rule:evenodd;stroke-linejoin:round;stroke-miterlimit:1.41421"
   id="svg116"
   sodipodi:docname="icon.svg"
   inkscape:version="1.0.1 (3bc2e813f5, 2020-09-07)"><metadata
     id="metadata122"><rdf:RDF><cc:Work
         rdf:about=""><dc:format>image/svg+xml</dc:format><dc:type
           rdf:resource="http://purl.org/dc/dcmitype/StillImage" /><dc:title></dc:title></cc:Work></rdf:RDF></metadata><defs
     id="defs120" /><sodipodi:namedview
     pagecolor="#ffffff"
     bordercolor="#666666"
     borderopacity="1"
     objecttolerance="10"
     gridtolerance="10"
     guidetolerance="10"
     inkscape:pageopacity="0"
     inkscape:pageshadow="2"
     inkscape:window-width="1920"
     inkscape:window-height="1017"
     id="namedview118"
     showgrid="false"
     fit-margin-top="0"
     fit-margin-left="0"
     fit-margin-right="0"
     fit-margin-bottom="0"
     inkscape:zoom="0.19775808"
     inkscape:cx="2065.8427"
     inkscape:cy="673.15644"
     inkscape:window-x="-8"
     inkscape:window-y="-8"
     inkscape:window-maximized="1"
     inkscape:current-layer="g114" /><g
     id="g114"
     transform="translate(-10.451,-10.451)"><path
       d="m 24.726,290.004 c 0,-144.977 117.528,-262.5 262.5,-262.5 144.978,0 262.501,117.523 262.501,262.5 0,144.978 -117.523,262.5 -262.501,262.5 -144.972,0 -262.5,-117.522 -262.5,-262.5 z m 82.156,-0.694 c 0,99.989 81.05,181.039 181.039,181.039 99.989,0 181.044,-81.05 181.044,-181.039 0,-99.989 -81.055,-181.045 -181.044,-181.045 -99.989,0 -181.039,81.056 -181.039,181.045 z m 691.456,-2.084 c 0,-144.977 117.527,-262.5 262.5,-262.5 144.977,0 262.5,117.523 262.5,262.5 0,144.978 -117.523,262.5 -262.5,262.5 -144.973,0 -262.5,-117.522 -262.5,-262.5 z"
       style="fill:#00adee;fill-rule:nonzero"
       id="path106" /><path
       d="m 287.226,566.78 -1.787,-0.005 -1.786,-0.017 -1.783,-0.029 -1.78,-0.039 -1.778,-0.051 -1.775,-0.062 -1.772,-0.073 -1.769,-0.084 -1.767,-0.095 -1.763,-0.106 -1.761,-0.117 -1.758,-0.128 -1.755,-0.139 -1.752,-0.151 -1.749,-0.16 -1.745,-0.172 -1.743,-0.183 -1.74,-0.193 -1.736,-0.204 -1.733,-0.215 -1.73,-0.225 -1.726,-0.236 -1.724,-0.247 -1.719,-0.257 -1.717,-0.268 -1.713,-0.278 -1.709,-0.289 -1.706,-0.299 -1.702,-0.31 -1.699,-0.32 -1.695,-0.33 -1.692,-0.341 -1.687,-0.35 -1.684,-0.362 -1.68,-0.371 -1.677,-0.381 -1.673,-0.392 -1.668,-0.402 -1.665,-0.411 -1.661,-0.422 -1.656,-0.432 -1.653,-0.442 -1.649,-0.451 -1.644,-0.462 -1.641,-0.471 -1.636,-0.481 -1.632,-0.491 -1.628,-0.501 -1.623,-0.511 -1.62,-0.52 -1.615,-0.53 -1.61,-0.539 -1.606,-0.549 -1.602,-0.559 -1.597,-0.568 -1.592,-0.577 -1.588,-0.587 -1.584,-0.597 -1.578,-0.605 -1.574,-0.615 -1.57,-0.625 -1.565,-0.634 -1.559,-0.642 -1.555,-0.653 -1.551,-0.661 -1.545,-0.67 -1.54,-0.68 -1.536,-0.689 -1.53,-0.697 -1.526,-0.707 -1.521,-0.715 -1.515,-0.725 -1.51,-0.733 -1.505,-0.742 -1.5,-0.751 -1.495,-0.76 -1.489,-0.769 -1.484,-0.777 -1.479,-0.786 -1.474,-0.795 -1.468,-0.803 -1.463,-0.812 -1.457,-0.821 -1.452,-0.828 -1.446,-0.838 -1.441,-0.846 -1.435,-0.854 -1.429,-0.863 -1.424,-0.871 -1.418,-0.879 -1.412,-0.888 -1.407,-0.895 -1.401,-0.904 -1.395,-0.913 -1.389,-0.92 -1.383,-0.928 -1.378,-0.937 -1.371,-0.945 -1.365,-0.952 -1.36,-0.961 -1.353,-0.968 -1.347,-0.976 -1.341,-0.985 -1.335,-0.992 -1.329,-1 -1.322,-1.007 -1.316,-1.016 -1.31,-1.023 -1.304,-1.03 -1.297,-1.039 -1.291,-1.046 -1.285,-1.053 -1.277,-1.061 -1.272,-1.069 -1.265,-1.076 -1.258,-1.083 -1.252,-1.091 -1.245,-1.099 -1.239,-1.105 -1.231,-1.113 -1.225,-1.12 -1.219,-1.127 -1.211,-1.135 -1.205,-1.142 -1.198,-1.148 -1.191,-1.156 -1.184,-1.163 -1.177,-1.17 -1.17,-1.177 -1.163,-1.184 -1.156,-1.191 -1.149,-1.198 -1.141,-1.205 -1.135,-1.211 -1.127,-1.219 -1.12,-1.225 -1.113,-1.231 -1.106,-1.239 -1.098,-1.245 -1.091,-1.252 -1.083,-1.258 -1.076,-1.265 -1.069,-1.271 -1.061,-1.278 -1.053,-1.285 -1.047,-1.29 -1.038,-1.298 -1.031,-1.303 -1.023,-1.31 -1.015,-1.317 -1.008,-1.322 -1,-1.329 -0.992,-1.334 -0.984,-1.341 -0.977,-1.348 -0.968,-1.353 -0.961,-1.359 -0.952,-1.366 -0.945,-1.371 -0.936,-1.377 -0.929,-1.384 -0.92,-1.389 -0.912,-1.395 -0.904,-1.401 -0.896,-1.406 -0.888,-1.413 -0.879,-1.418 -0.871,-1.423 -0.863,-1.43 -0.854,-1.435 -0.846,-1.441 -0.837,-1.446 -0.829,-1.452 -0.821,-1.457 -0.812,-1.463 -0.803,-1.468 -0.795,-1.473 -0.786,-1.479 -0.777,-1.484 -0.769,-1.49 -0.76,-1.494 -0.751,-1.5 -0.742,-1.506 -0.733,-1.51 -0.725,-1.515 -0.716,-1.521 -0.706,-1.525 -0.698,-1.531 -0.688,-1.535 -0.68,-1.541 -0.67,-1.545 -0.662,-1.55 -0.652,-1.555 -0.643,-1.56 -0.634,-1.565 -0.624,-1.569 -0.615,-1.575 -0.606,-1.578 -0.596,-1.584 -0.587,-1.588 -0.578,-1.592 -0.568,-1.597 -0.559,-1.602 -0.549,-1.606 -0.539,-1.611 -0.53,-1.614 -0.52,-1.62 -0.511,-1.623 -0.5,-1.628 -0.491,-1.632 -0.482,-1.636 -0.471,-1.641 -0.462,-1.644 -0.451,-1.649 -0.442,-1.653 -0.432,-1.657 -0.422,-1.661 -0.411,-1.664 -0.402,-1.669 -0.392,-1.673 -0.381,-1.676 -0.371,-1.68 -0.362,-1.684 -0.35,-1.688 -0.341,-1.691 -0.33,-1.696 -0.32,-1.698 -0.31,-1.703 -0.299,-1.706 -0.289,-1.709 -0.278,-1.713 -0.268,-1.717 -0.257,-1.719 -0.247,-1.724 -0.236,-1.726 -0.225,-1.73 -0.215,-1.733 -0.204,-1.737 -0.194,-1.739 -0.182,-1.743 -0.172,-1.746 -0.161,-1.749 -0.15,-1.751 -0.139,-1.755 -0.128,-1.758 -0.117,-1.761 -0.106,-1.764 -0.096,-1.767 -0.084,-1.769 -0.073,-1.772 -0.061,-1.775 -0.051,-1.778 -0.04,-1.78 -0.028,-1.783 -0.017,-1.786 -0.005,-1.788 0.005,-1.788 0.017,-1.785 0.028,-1.783 0.04,-1.781 0.051,-1.777 0.061,-1.775 0.073,-1.773 0.084,-1.769 0.096,-1.767 0.106,-1.763 0.117,-1.761 0.128,-1.758 0.139,-1.755 0.15,-1.752 0.161,-1.749 0.172,-1.746 0.182,-1.742 0.194,-1.74 0.204,-1.736 0.215,-1.733 0.225,-1.73 0.236,-1.727 0.247,-1.723 0.257,-1.72 0.268,-1.716 0.278,-1.713 0.289,-1.71 0.299,-1.706 0.31,-1.702 0.32,-1.699 0.33,-1.695 0.341,-1.691 0.35,-1.688 0.362,-1.684 0.371,-1.681 0.381,-1.676 0.392,-1.673 0.402,-1.668 0.411,-1.665 0.422,-1.661 0.432,-1.657 0.442,-1.652 0.451,-1.649 0.462,-1.645 0.471,-1.64 0.482,-1.636 0.491,-1.632 0.5,-1.628 0.511,-1.624 0.52,-1.619 0.53,-1.615 0.539,-1.61 0.549,-1.606 0.559,-1.602 0.568,-1.597 0.578,-1.593 0.587,-1.588 0.596,-1.583 0.606,-1.579 0.615,-1.574 0.624,-1.569 0.634,-1.565 0.643,-1.56 0.652,-1.555 0.662,-1.55 0.67,-1.546 0.68,-1.54 0.688,-1.536 0.698,-1.53 0.706,-1.526 0.716,-1.52 0.725,-1.516 0.733,-1.51 0.742,-1.505 0.751,-1.5 0.76,-1.495 0.769,-1.489 0.777,-1.484 0.786,-1.479 0.795,-1.474 0.803,-1.468 0.812,-1.463 0.821,-1.457 0.829,-1.452 0.837,-1.446 0.846,-1.44 0.854,-1.436 0.863,-1.429 0.871,-1.424 0.879,-1.418 0.888,-1.412 0.896,-1.407 0.904,-1.401 0.912,-1.395 0.92,-1.389 0.929,-1.383 0.936,-1.377 0.945,-1.372 0.952,-1.365 0.961,-1.359 0.968,-1.354 0.977,-1.347 0.984,-1.341 0.992,-1.335 1,-1.329 1.008,-1.322 1.015,-1.316 1.023,-1.31 1.031,-1.304 1.038,-1.297 1.046,-1.291 1.054,-1.284 1.061,-1.278 1.069,-1.272 1.076,-1.264 1.083,-1.259 1.091,-1.252 1.098,-1.245 1.106,-1.238 1.113,-1.232 1.12,-1.225 1.127,-1.218 1.135,-1.212 1.142,-1.204 1.148,-1.198 1.156,-1.191 1.163,-1.184 1.17,-1.177 1.177,-1.17 1.184,-1.163 1.191,-1.156 1.198,-1.149 1.205,-1.142 1.211,-1.134 1.219,-1.127 1.225,-1.12 1.231,-1.113 1.239,-1.106 1.245,-1.098 1.252,-1.091 1.258,-1.083 1.265,-1.076 1.272,-1.069 1.277,-1.061 1.285,-1.054 1.291,-1.046 1.297,-1.038 1.304,-1.031 1.309,-1.023 1.317,-1.015 1.322,-1.008 1.329,-1 1.335,-0.992 1.341,-0.984 1.347,-0.976 1.353,-0.969 1.36,-0.96 1.365,-0.953 1.371,-0.945 1.378,-0.936 1.383,-0.929 1.389,-0.92 1.395,-0.912 1.401,-0.904 1.407,-0.896 1.412,-0.887 1.418,-0.88 1.424,-0.871 1.429,-0.862 1.435,-0.855 1.441,-0.846 1.446,-0.837 1.452,-0.829 1.457,-0.82 1.463,-0.812 1.468,-0.804 1.474,-0.794 1.478,-0.786 1.485,-0.778 1.489,-0.768 1.495,-0.76 1.5,-0.751 1.505,-0.742 1.51,-0.734 1.515,-0.724 1.521,-0.716 1.526,-0.706 1.53,-0.698 1.536,-0.689 1.54,-0.679 1.545,-0.671 1.551,-0.661 1.555,-0.652 1.56,-0.643 1.564,-0.634 1.57,-0.624 1.574,-0.615 1.578,-0.606 1.584,-0.596 1.588,-0.587 1.592,-0.578 1.597,-0.568 1.602,-0.558 1.606,-0.549 1.611,-0.54 1.614,-0.53 1.62,-0.52 1.623,-0.51 1.628,-0.501 1.632,-0.491 1.636,-0.481 1.641,-0.472 1.644,-0.461 1.649,-0.452 1.653,-0.442 1.656,-0.431 1.661,-0.422 1.665,-0.412 1.669,-0.402 1.672,-0.391 1.676,-0.382 1.681,-0.371 1.684,-0.361 1.687,-0.351 1.692,-0.34 1.695,-0.331 1.699,-0.32 1.702,-0.309 1.706,-0.3 1.709,-0.288 1.713,-0.279 1.717,-0.267 1.719,-0.258 1.724,-0.246 1.726,-0.236 1.73,-0.226 1.733,-0.214 1.736,-0.205 1.74,-0.193 1.742,-0.182 1.746,-0.172 1.749,-0.161 1.752,-0.15 1.755,-0.139 1.758,-0.128 1.761,-0.117 1.763,-0.107 1.767,-0.095 1.769,-0.084 1.772,-0.073 1.775,-0.062 1.778,-0.05 1.78,-0.04 1.783,-0.028 1.785,-0.017 1.788,-0.006 1.789,0.006 1.785,0.017 1.783,0.028 1.78,0.04 1.778,0.05 1.775,0.062 1.772,0.073 1.77,0.084 1.766,0.095 1.764,0.107 1.761,0.117 1.758,0.128 1.755,0.139 1.752,0.15 1.749,0.161 1.745,0.172 1.743,0.182 1.74,0.193 1.736,0.204 1.733,0.215 1.73,0.226 1.727,0.236 1.723,0.246 1.72,0.258 1.716,0.267 1.713,0.279 1.709,0.288 1.706,0.3 1.703,0.309 1.699,0.32 1.695,0.33 1.691,0.341 1.688,0.351 1.684,0.361 1.68,0.371 1.677,0.382 1.672,0.391 1.669,0.402 1.665,0.412 1.66,0.422 1.657,0.431 1.653,0.442 1.649,0.452 1.644,0.461 1.641,0.472 1.636,0.481 1.632,0.491 1.628,0.501 1.623,0.51 1.62,0.52 1.615,0.53 1.61,0.54 1.606,0.549 1.602,0.558 1.597,0.568 1.592,0.578 1.588,0.587 1.584,0.596 1.579,0.606 1.574,0.615 1.569,0.624 1.565,0.634 1.56,0.643 1.555,0.652 1.55,0.661 1.545,0.671 1.541,0.679 1.535,0.689 1.531,0.698 1.525,0.706 1.521,0.716 1.515,0.724 1.511,0.734 1.505,0.742 1.5,0.751 1.494,0.76 1.49,0.768 1.484,0.778 1.479,0.786 1.473,0.794 1.469,0.804 1.462,0.812 1.457,0.82 1.452,0.829 1.446,0.837 1.441,0.846 1.435,0.855 1.43,0.862 1.423,0.871 1.419,0.88 1.412,0.887 1.407,0.896 1.4,0.904 1.395,0.912 1.39,0.921 1.383,0.928 1.377,0.936 1.371,0.945 1.366,0.953 1.359,0.96 1.353,0.969 1.348,0.976 1.341,0.984 1.334,0.992 1.329,1 1.323,1.008 1.316,1.015 1.31,1.023 1.303,1.031 1.298,1.038 1.29,1.046 1.285,1.054 1.278,1.061 1.271,1.069 1.265,1.076 1.259,1.083 1.251,1.091 1.245,1.098 1.239,1.106 1.232,1.113 1.225,1.12 1.218,1.127 1.211,1.135 1.205,1.141 1.198,1.149 1.191,1.156 1.184,1.163 1.177,1.17 1.17,1.177 1.163,1.184 1.156,1.191 1.149,1.198 1.141,1.204 1.135,1.212 1.127,1.218 1.12,1.225 1.113,1.232 1.106,1.238 1.098,1.246 1.091,1.251 1.083,1.259 1.076,1.265 1.069,1.271 1.061,1.278 1.053,1.284 1.046,1.291 1.039,1.297 1.03,1.304 1.024,1.31 1.015,1.316 1.008,1.323 0.999,1.328 0.993,1.335 0.984,1.341 0.976,1.347 0.969,1.354 0.96,1.359 0.953,1.365 0.944,1.372 0.937,1.377 0.928,1.383 0.921,1.389 0.912,1.395 0.904,1.401 0.896,1.407 0.887,1.412 0.88,1.418 0.871,1.424 0.862,1.43 0.855,1.435 0.845,1.44 0.838,1.447 0.829,1.451 0.82,1.458 0.812,1.462 0.803,1.468 0.795,1.474 0.786,1.479 0.777,1.484 0.769,1.489 0.76,1.495 0.751,1.5 0.742,1.505 0.733,1.51 0.725,1.516 0.716,1.52 0.706,1.526 0.698,1.53 0.688,1.536 0.68,1.54 0.67,1.546 0.662,1.55 0.652,1.555 0.643,1.56 0.633,1.565 0.625,1.569 0.615,1.574 0.606,1.579 0.596,1.583 0.587,1.588 0.578,1.593 0.568,1.597 0.558,1.602 0.549,1.606 0.54,1.61 0.529,1.615 0.521,1.619 0.51,1.624 0.501,1.628 0.491,1.632 0.481,1.636 0.471,1.641 0.462,1.644 0.452,1.649 0.441,1.653 0.432,1.656 0.422,1.661 0.412,1.665 0.401,1.669 0.392,1.672 0.381,1.677 0.372,1.68 0.361,1.684 0.351,1.688 0.34,1.691 0.331,1.695 0.32,1.699 0.309,1.703 0.299,1.705 0.289,1.71 0.278,1.713 0.268,1.716 0.257,1.72 0.247,1.723 0.236,1.727 0.226,1.73 0.214,1.733 0.204,1.736 0.194,1.74 0.182,1.742 0.172,1.746 0.161,1.749 0.15,1.752 0.139,1.755 0.128,1.758 0.117,1.761 0.106,1.763 0.096,1.767 0.084,1.77 0.073,1.772 0.061,1.775 0.051,1.777 0.04,1.781 0.028,1.783 0.017,1.785 0.005,1.788 -0.005,1.788 -0.017,1.786 -0.028,1.783 -0.04,1.78 -0.051,1.778 -0.061,1.775 -0.073,1.772 -0.084,1.769 -0.096,1.767 -0.106,1.764 -0.117,1.76 -0.128,1.759 -0.139,1.754 -0.15,1.752 -0.161,1.749 -0.172,1.746 -0.182,1.743 -0.194,1.739 -0.204,1.737 -0.214,1.733 -0.226,1.73 -0.236,1.726 -0.247,1.723 -0.257,1.72 -0.268,1.717 -0.278,1.713 -0.289,1.709 -0.299,1.706 -0.309,1.703 -0.32,1.698 -0.331,1.695 -0.34,1.692 -0.351,1.688 -0.361,1.684 -0.372,1.68 -0.381,1.676 -0.392,1.673 -0.401,1.669 -0.412,1.664 -0.422,1.661 -0.432,1.657 -0.441,1.653 -0.452,1.648 -0.462,1.645 -0.471,1.64 -0.481,1.637 -0.491,1.632 -0.501,1.628 -0.51,1.623 -0.521,1.619 -0.529,1.615 -0.54,1.611 -0.549,1.606 -0.558,1.601 -0.568,1.598 -0.578,1.592 -0.587,1.588 -0.596,1.584 -0.606,1.578 -0.615,1.574 -0.625,1.57 -0.633,1.564 -0.643,1.56 -0.652,1.556 -0.662,1.55 -0.67,1.545 -0.68,1.541 -0.688,1.535 -0.698,1.531 -0.706,1.525 -0.716,1.521 -0.725,1.515 -0.733,1.51 -0.742,1.505 -0.751,1.5 -0.76,1.495 -0.769,1.49 -0.777,1.484 -0.786,1.479 -0.795,1.473 -0.803,1.468 -0.812,1.463 -0.82,1.457 -0.829,1.452 -0.838,1.446 -0.845,1.441 -0.855,1.435 -0.862,1.429 -0.871,1.424 -0.88,1.418 -0.887,1.413 -0.896,1.406 -0.904,1.401 -0.912,1.395 -0.921,1.389 -0.928,1.384 -0.937,1.377 -0.944,1.371 -0.953,1.366 -0.96,1.359 -0.969,1.353 -0.976,1.347 -0.984,1.341 -0.993,1.335 -0.999,1.329 -1.008,1.322 -1.015,1.317 -1.024,1.31 -1.03,1.303 -1.039,1.297 -1.046,1.291 -1.053,1.285 -1.061,1.278 -1.069,1.271 -1.076,1.265 -1.083,1.258 -1.091,1.252 -1.098,1.245 -1.106,1.239 -1.113,1.231 -1.12,1.225 -1.127,1.219 -1.135,1.211 -1.141,1.205 -1.149,1.198 -1.156,1.191 -1.163,1.183 -1.17,1.178 -1.177,1.17 -1.184,1.162 -1.191,1.156 -1.198,1.149 -1.205,1.142 -1.211,1.135 -1.218,1.127 -1.225,1.12 -1.232,1.113 -1.239,1.105 -1.245,1.099 -1.252,1.091 -1.258,1.083 -1.265,1.076 -1.271,1.069 -1.278,1.061 -1.285,1.053 -1.29,1.046 -1.298,1.039 -1.303,1.03 -1.31,1.023 -1.316,1.016 -1.323,1.007 -1.328,1 -1.335,0.992 -1.341,0.985 -1.348,0.976 -1.353,0.968 -1.359,0.961 -1.366,0.953 -1.371,0.944 -1.377,0.937 -1.383,0.928 -1.389,0.92 -1.396,0.913 -1.401,0.904 -1.406,0.895 -1.412,0.888 -1.419,0.879 -1.423,0.871 -1.43,0.863 -1.435,0.854 -1.441,0.846 -1.446,0.838 -1.451,0.828 -1.458,0.821 -1.463,0.812 -1.468,0.803 -1.473,0.795 -1.479,0.786 -1.484,0.777 -1.49,0.769 -1.494,0.76 -1.5,0.751 -1.505,0.742 -1.511,0.733 -1.515,0.725 -1.521,0.715 -1.525,0.707 -1.531,0.698 -1.535,0.688 -1.541,0.68 -1.545,0.67 -1.55,0.661 -1.555,0.653 -1.56,0.642 -1.565,0.634 -1.569,0.625 -1.575,0.615 -1.578,0.605 -1.584,0.597 -1.588,0.587 -1.592,0.577 -1.597,0.568 -1.602,0.559 -1.606,0.549 -1.61,0.539 -1.615,0.53 -1.62,0.52 -1.623,0.511 -1.628,0.501 -1.632,0.491 -1.636,0.481 -1.641,0.471 -1.644,0.462 -1.649,0.451 -1.653,0.442 -1.657,0.432 -1.66,0.422 -1.665,0.411 -1.669,0.402 -1.672,0.392 -1.677,0.381 -1.68,0.371 -1.684,0.362 -1.688,0.35 -1.691,0.341 -1.695,0.33 -1.699,0.32 -1.703,0.31 -1.705,0.299 -1.71,0.289 -1.713,0.278 -1.717,0.268 -1.719,0.257 -1.723,0.247 -1.727,0.236 -1.73,0.225 -1.733,0.215 -1.736,0.204 -1.74,0.193 -1.743,0.183 -1.745,0.172 -1.749,0.16 -1.752,0.151 -1.755,0.139 -1.758,0.128 -1.761,0.117 -1.764,0.106 -1.766,0.095 -1.77,0.084 -1.772,0.073 -1.775,0.062 -1.778,0.051 -1.78,0.039 -1.783,0.029 -1.786,0.017 z m 0,-28.552 1.608,-0.005 1.604,-0.015 1.603,-0.025 1.599,-0.036 1.597,-0.045 1.595,-0.056 1.591,-0.065 1.589,-0.076 1.587,-0.085 1.583,-0.096 1.581,-0.105 1.578,-0.115 1.575,-0.125 1.572,-0.134 1.569,-0.145 1.567,-0.154 1.563,-0.164 1.561,-0.173 1.557,-0.183 1.555,-0.193 1.551,-0.202 1.549,-0.212 1.545,-0.221 1.542,-0.23 1.539,-0.24 1.536,-0.25 1.532,-0.259 1.53,-0.268 1.526,-0.278 1.523,-0.286 1.519,-0.296 1.516,-0.306 1.513,-0.314 1.51,-0.324 1.505,-0.333 1.503,-0.341 1.499,-0.351 1.495,-0.36 1.492,-0.369 1.488,-0.378 1.485,-0.387 1.481,-0.396 1.477,-0.405 1.474,-0.413 1.47,-0.423 1.466,-0.431 1.463,-0.44 1.458,-0.449 1.455,-0.457 1.451,-0.466 1.447,-0.475 1.443,-0.483 1.439,-0.492 1.435,-0.501 1.432,-0.509 1.427,-0.517 1.423,-0.526 1.419,-0.535 1.415,-0.543 1.41,-0.551 1.406,-0.559 1.403,-0.568 1.398,-0.577 1.394,-0.584 1.389,-0.593 1.385,-0.601 1.381,-0.609 1.376,-0.617 1.372,-0.625 1.367,-0.634 1.363,-0.641 1.359,-0.649 1.353,-0.658 1.35,-0.665 1.344,-0.674 1.34,-0.681 1.336,-0.689 1.331,-0.697 1.325,-0.704 1.321,-0.713 1.317,-0.72 1.311,-0.728 1.307,-0.736 1.302,-0.743 1.297,-0.751 1.292,-0.759 1.287,-0.766 1.282,-0.773 1.277,-0.782 1.271,-0.788 1.267,-0.796 1.262,-0.804 1.256,-0.811 1.251,-0.818 1.246,-0.825 1.241,-0.833 1.236,-0.84 1.23,-0.848 1.225,-0.854 1.219,-0.862 1.215,-0.869 1.208,-0.876 1.203,-0.883 1.198,-0.89 1.192,-0.897 1.187,-0.904 1.181,-0.911 1.175,-0.918 1.17,-0.925 1.164,-0.932 1.158,-0.938 1.152,-0.946 1.147,-0.952 1.141,-0.959 1.135,-0.965 1.13,-0.973 1.123,-0.978 1.117,-0.986 1.112,-0.992 1.105,-0.999 1.099,-1.005 1.094,-1.012 1.087,-1.018 1.081,-1.025 1.075,-1.03 1.069,-1.038 1.062,-1.044 1.057,-1.05 1.05,-1.056 1.043,-1.063 1.038,-1.068 1.031,-1.075 1.024,-1.081 1.019,-1.088 1.011,-1.093 1.005,-1.099 0.999,-1.106 0.992,-1.111 0.986,-1.117 0.979,-1.124 0.972,-1.129 0.966,-1.135 0.958,-1.141 0.953,-1.147 0.945,-1.152 0.939,-1.159 0.931,-1.164 0.925,-1.169 0.918,-1.176 0.911,-1.181 0.904,-1.186 0.897,-1.192 0.891,-1.198 0.883,-1.203 0.876,-1.209 0.868,-1.214 0.862,-1.219 0.855,-1.225 0.847,-1.23 0.84,-1.236 0.833,-1.241 0.825,-1.246 0.819,-1.251 0.811,-1.257 0.803,-1.261 0.796,-1.267 0.789,-1.272 0.781,-1.277 0.773,-1.281 0.767,-1.287 0.758,-1.292 0.751,-1.297 0.743,-1.302 0.736,-1.307 0.728,-1.311 0.72,-1.317 0.713,-1.321 0.705,-1.326 0.697,-1.331 0.689,-1.335 0.681,-1.34 0.673,-1.344 0.665,-1.35 0.658,-1.354 0.649,-1.358 0.642,-1.363 0.633,-1.367 0.625,-1.372 0.618,-1.377 0.609,-1.38 0.6,-1.385 0.593,-1.39 0.585,-1.393 0.576,-1.398 0.568,-1.403 0.559,-1.406 0.551,-1.411 0.543,-1.415 0.535,-1.419 0.526,-1.423 0.517,-1.427 0.509,-1.431 0.501,-1.435 0.492,-1.439 0.483,-1.443 0.475,-1.447 0.466,-1.451 0.458,-1.455 0.448,-1.459 0.44,-1.462 0.431,-1.466 0.423,-1.47 0.413,-1.474 0.405,-1.477 0.396,-1.481 0.387,-1.485 0.378,-1.488 0.369,-1.492 0.36,-1.495 0.351,-1.499 0.342,-1.503 0.332,-1.506 0.324,-1.509 0.314,-1.513 0.306,-1.516 0.296,-1.519 0.287,-1.523 0.277,-1.526 0.268,-1.53 0.259,-1.532 0.25,-1.536 0.24,-1.539 0.23,-1.542 0.222,-1.546 0.211,-1.548 0.203,-1.551 0.192,-1.555 0.183,-1.557 0.174,-1.561 0.163,-1.564 0.155,-1.566 0.144,-1.569 0.134,-1.572 0.125,-1.576 0.115,-1.577 0.106,-1.581 0.095,-1.584 0.085,-1.586 0.076,-1.589 0.065,-1.591 0.056,-1.595 0.045,-1.597 0.036,-1.6 0.025,-1.602 0.016,-1.604 0.005,-1.608 -0.005,-1.607 -0.016,-1.605 -0.025,-1.602 -0.036,-1.6 -0.045,-1.597 -0.056,-1.594 -0.065,-1.592 -0.076,-1.589 -0.085,-1.586 -0.095,-1.583 -0.106,-1.581 -0.115,-1.578 -0.125,-1.575 -0.134,-1.572 -0.144,-1.569 -0.155,-1.567 -0.163,-1.564 -0.174,-1.56 -0.183,-1.558 -0.192,-1.554 -0.203,-1.552 -0.211,-1.548 -0.222,-1.545 -0.23,-1.542 -0.24,-1.539 -0.25,-1.536 -0.259,-1.533 -0.268,-1.529 -0.277,-1.526 -0.287,-1.523 -0.296,-1.52 -0.306,-1.516 -0.314,-1.512 -0.324,-1.51 -0.332,-1.506 -0.342,-1.502 -0.351,-1.499 -0.36,-1.495 -0.369,-1.492 -0.378,-1.488 -0.387,-1.485 -0.396,-1.481 -0.405,-1.478 -0.413,-1.473 -0.423,-1.47 -0.431,-1.466 -0.44,-1.463 -0.448,-1.459 -0.458,-1.454 -0.466,-1.451 -0.475,-1.447 -0.483,-1.443 -0.492,-1.44 -0.501,-1.435 -0.509,-1.431 -0.517,-1.427 -0.526,-1.423 -0.535,-1.419 -0.543,-1.415 -0.551,-1.41 -0.559,-1.407 -0.568,-1.402 -0.576,-1.398 -0.585,-1.394 -0.593,-1.389 -0.6,-1.385 -0.609,-1.381 -0.618,-1.376 -0.625,-1.372 -0.633,-1.367 -0.642,-1.363 -0.649,-1.359 -0.658,-1.354 -0.665,-1.349 -0.673,-1.345 -0.681,-1.34 -0.69,-1.335 -0.696,-1.331 -0.705,-1.326 -0.713,-1.321 -0.72,-1.316 -0.728,-1.312 -0.736,-1.306 -0.743,-1.302 -0.751,-1.297 -0.758,-1.292 -0.767,-1.287 -0.773,-1.282 -0.781,-1.277 -0.789,-1.272 -0.796,-1.266 -0.803,-1.262 -0.811,-1.257 -0.819,-1.251 -0.825,-1.246 -0.833,-1.241 -0.84,-1.235 -0.847,-1.23 -0.855,-1.225 -0.862,-1.22 -0.868,-1.214 -0.876,-1.208 -0.883,-1.204 -0.891,-1.197 -0.897,-1.192 -0.904,-1.187 -0.911,-1.181 -0.918,-1.175 -0.925,-1.17 -0.931,-1.164 -0.939,-1.158 -0.945,-1.153 -0.953,-1.146 -0.958,-1.141 -0.966,-1.135 -0.972,-1.13 -0.979,-1.123 -0.986,-1.117 -0.992,-1.112 -0.999,-1.105 -1.005,-1.1 -1.012,-1.093 -1.018,-1.087 -1.024,-1.081 -1.031,-1.075 -1.038,-1.069 -1.043,-1.063 -1.05,-1.056 -1.057,-1.05 -1.062,-1.044 -1.069,-1.037 -1.075,-1.031 -1.081,-1.025 -1.087,-1.018 -1.094,-1.011 -1.099,-1.006 -1.105,-0.998 -1.112,-0.992 -1.117,-0.986 -1.124,-0.979 -1.129,-0.972 -1.135,-0.966 -1.141,-0.959 -1.147,-0.952 -1.152,-0.945 -1.158,-0.939 -1.164,-0.932 -1.17,-0.924 -1.175,-0.918 -1.181,-0.912 -1.187,-0.904 -1.192,-0.897 -1.198,-0.89 -1.203,-0.883 -1.208,-0.876 -1.215,-0.869 -1.219,-0.861 -1.225,-0.855 -1.23,-0.847 -1.236,-0.84 -1.24,-0.833 -1.246,-0.826 -1.252,-0.818 -1.256,-0.811 -1.262,-0.803 -1.267,-0.796 -1.271,-0.789 -1.277,-0.781 -1.282,-0.774 -1.287,-0.766 -1.292,-0.758 -1.297,-0.751 -1.302,-0.744 -1.307,-0.735 -1.311,-0.728 -1.317,-0.721 -1.321,-0.712 -1.326,-0.705 -1.33,-0.697 -1.336,-0.689 -1.34,-0.681 -1.344,-0.673 -1.35,-0.666 -1.353,-0.657 -1.359,-0.65 -1.363,-0.641 -1.367,-0.633 -1.372,-0.626 -1.376,-0.617 -1.381,-0.609 -1.385,-0.601 -1.389,-0.592 -1.394,-0.585 -1.398,-0.576 -1.402,-0.568 -1.407,-0.56 -1.411,-0.551 -1.414,-0.543 -1.419,-0.534 -1.423,-0.526 -1.427,-0.518 -1.432,-0.509 -1.435,-0.5 -1.439,-0.492 -1.443,-0.483 -1.447,-0.475 -1.451,-0.466 -1.455,-0.458 -1.458,-0.448 -1.463,-0.44 -1.466,-0.432 -1.47,-0.422 -1.474,-0.414 -1.477,-0.404 -1.481,-0.396 -1.485,-0.387 -1.488,-0.378 -1.492,-0.369 -1.495,-0.36 -1.499,-0.351 -1.503,-0.342 -1.506,-0.333 -1.509,-0.323 -1.513,-0.315 -1.516,-0.305 -1.519,-0.296 -1.523,-0.287 -1.526,-0.277 -1.529,-0.269 -1.533,-0.258 -1.536,-0.25 -1.539,-0.24 -1.542,-0.231 -1.545,-0.221 -1.549,-0.212 -1.551,-0.202 -1.555,-0.192 -1.557,-0.183 -1.561,-0.174 -1.563,-0.164 -1.567,-0.154 -1.569,-0.144 -1.572,-0.135 -1.575,-0.125 -1.578,-0.115 -1.581,-0.105 -1.583,-0.095 -1.587,-0.086 -1.589,-0.075 -1.591,-0.066 -1.595,-0.055 -1.597,-0.046 -1.599,-0.035 -1.602,-0.026 -1.605,-0.015 -1.608,-0.005 -1.607,0.005 -1.604,0.015 -1.603,0.026 -1.599,0.035 -1.597,0.046 -1.594,0.055 -1.592,0.066 -1.589,0.075 -1.586,0.086 -1.583,0.095 -1.581,0.105 -1.578,0.115 -1.575,0.125 -1.572,0.135 -1.569,0.144 -1.567,0.154 -1.563,0.164 -1.561,0.174 -1.557,0.183 -1.555,0.192 -1.551,0.202 -1.548,0.212 -1.546,0.221 -1.542,0.231 -1.539,0.24 -1.536,0.25 -1.532,0.258 -1.529,0.269 -1.527,0.277 -1.522,0.287 -1.52,0.296 -1.516,0.305 -1.512,0.315 -1.51,0.323 -1.506,0.333 -1.502,0.342 -1.499,0.351 -1.495,0.36 -1.492,0.369 -1.488,0.378 -1.485,0.387 -1.481,0.396 -1.477,0.404 -1.474,0.414 -1.47,0.422 -1.466,0.432 -1.463,0.44 -1.458,0.448 -1.455,0.458 -1.451,0.466 -1.447,0.475 -1.443,0.483 -1.439,0.492 -1.435,0.5 -1.431,0.509 -1.427,0.518 -1.423,0.526 -1.419,0.534 -1.415,0.543 -1.411,0.551 -1.406,0.56 -1.402,0.568 -1.398,0.576 -1.394,0.585 -1.39,0.592 -1.385,0.601 -1.38,0.609 -1.377,0.617 -1.371,0.626 -1.368,0.633 -1.363,0.641 -1.358,0.65 -1.354,0.657 -1.349,0.666 -1.345,0.673 -1.34,0.681 -1.335,0.689 -1.331,0.697 -1.326,0.705 -1.321,0.712 -1.316,0.721 -1.312,0.728 -1.307,0.735 -1.301,0.744 -1.297,0.751 -1.292,0.758 -1.287,0.766 -1.282,0.774 -1.277,0.781 -1.272,0.789 -1.267,0.796 -1.261,0.803 -1.257,0.811 -1.251,0.818 -1.246,0.826 -1.241,0.833 -1.236,0.84 -1.23,0.847 -1.225,0.855 -1.219,0.861 -1.214,0.869 -1.209,0.876 -1.203,0.883 -1.198,0.89 -1.192,0.897 -1.186,0.905 -1.181,0.911 -1.176,0.918 -1.169,0.924 -1.164,0.932 -1.159,0.939 -1.152,0.945 -1.147,0.952 -1.141,0.959 -1.135,0.966 -1.129,0.972 -1.124,0.979 -1.117,0.986 -1.111,0.992 -1.106,0.998 -1.099,1.006 -1.094,1.011 -1.087,1.019 -1.081,1.024 -1.075,1.031 -1.069,1.038 -1.062,1.043 -1.057,1.05 -1.05,1.057 -1.043,1.062 -1.038,1.069 -1.031,1.075 -1.024,1.081 -1.019,1.087 -1.011,1.094 -1.006,1.099 -0.998,1.105 -0.992,1.112 -0.986,1.117 -0.979,1.123 -0.972,1.13 -0.966,1.135 -0.959,1.141 -0.952,1.146 -0.945,1.153 -0.939,1.158 -0.932,1.164 -0.925,1.17 -0.918,1.175 -0.911,1.181 -0.904,1.187 -0.897,1.192 -0.89,1.198 -0.883,1.203 -0.876,1.208 -0.869,1.214 -0.862,1.22 -0.854,1.225 -0.848,1.23 -0.84,1.236 -0.833,1.24 -0.825,1.246 -0.818,1.252 -0.811,1.256 -0.804,1.262 -0.796,1.266 -0.788,1.272 -0.782,1.277 -0.773,1.282 -0.766,1.287 -0.759,1.292 -0.751,1.297 -0.743,1.302 -0.736,1.307 -0.728,1.311 -0.72,1.316 -0.713,1.322 -0.705,1.326 -0.696,1.33 -0.69,1.336 -0.681,1.34 -0.673,1.344 -0.666,1.349 -0.657,1.354 -0.649,1.359 -0.642,1.363 -0.633,1.367 -0.626,1.372 -0.617,1.376 -0.609,1.381 -0.601,1.385 -0.592,1.389 -0.585,1.394 -0.576,1.398 -0.568,1.402 -0.56,1.407 -0.551,1.41 -0.543,1.415 -0.534,1.419 -0.526,1.423 -0.518,1.427 -0.509,1.431 -0.5,1.436 -0.492,1.439 -0.484,1.443 -0.475,1.447 -0.466,1.451 -0.457,1.455 -0.449,1.458 -0.44,1.463 -0.431,1.466 -0.422,1.47 -0.414,1.474 -0.405,1.477 -0.396,1.481 -0.387,1.485 -0.378,1.488 -0.369,1.492 -0.36,1.495 -0.35,1.499 -0.342,1.503 -0.333,1.505 -0.324,1.51 -0.314,1.512 -0.306,1.517 -0.296,1.519 -0.286,1.523 -0.278,1.526 -0.268,1.529 -0.259,1.533 -0.25,1.536 -0.24,1.539 -0.23,1.542 -0.222,1.545 -0.211,1.549 -0.203,1.551 -0.192,1.554 -0.183,1.558 -0.174,1.561 -0.163,1.563 -0.154,1.566 -0.145,1.57 -0.134,1.572 -0.125,1.575 -0.115,1.578 -0.106,1.581 -0.095,1.583 -0.085,1.586 -0.076,1.589 -0.065,1.592 -0.056,1.594 -0.045,1.597 -0.036,1.6 -0.025,1.602 -0.016,1.605 -0.005,1.607 0.005,1.608 0.016,1.604 0.025,1.602 0.036,1.6 0.045,1.597 0.056,1.594 0.065,1.592 0.076,1.589 0.085,1.586 0.095,1.584 0.106,1.58 0.115,1.578 0.125,1.575 0.134,1.573 0.145,1.569 0.154,1.566 0.163,1.564 0.174,1.561 0.183,1.557 0.192,1.555 0.203,1.551 0.211,1.548 0.222,1.546 0.23,1.542 0.24,1.539 0.25,1.536 0.259,1.532 0.268,1.53 0.278,1.526 0.286,1.522 0.296,1.52 0.306,1.516 0.314,1.513 0.324,1.509 0.333,1.506 0.342,1.502 0.35,1.499 0.36,1.496 0.369,1.492 0.378,1.488 0.387,1.485 0.396,1.481 0.405,1.477 0.414,1.474 0.422,1.47 0.431,1.466 0.44,1.462 0.449,1.459 0.457,1.455 0.466,1.451 0.475,1.447 0.484,1.443 0.492,1.439 0.5,1.435 0.509,1.431 0.518,1.427 0.526,1.423 0.534,1.419 0.543,1.415 0.551,1.411 0.56,1.406 0.568,1.402 0.576,1.398 0.585,1.394 0.592,1.39 0.601,1.385 0.609,1.38 0.617,1.377 0.626,1.371 0.633,1.368 0.642,1.363 0.649,1.358 0.657,1.354 0.666,1.349 0.673,1.345 0.681,1.34 0.69,1.335 0.696,1.331 0.705,1.326 0.713,1.321 0.72,1.316 0.728,1.312 0.736,1.307 0.743,1.301 0.751,1.297 0.759,1.292 0.766,1.287 0.773,1.282 0.782,1.277 0.788,1.272 0.796,1.267 0.804,1.261 0.811,1.257 0.818,1.251 0.825,1.246 0.833,1.241 0.84,1.236 0.848,1.23 0.854,1.225 0.862,1.219 0.869,1.214 0.876,1.209 0.883,1.203 0.89,1.198 0.897,1.192 0.904,1.186 0.911,1.181 0.918,1.176 0.925,1.169 0.932,1.164 0.939,1.158 0.945,1.153 0.952,1.147 0.959,1.141 0.966,1.135 0.972,1.129 0.979,1.123 0.986,1.118 0.992,1.111 0.998,1.106 1.006,1.099 1.011,1.093 1.018,1.087 1.025,1.082 1.031,1.075 1.038,1.068 1.043,1.063 1.05,1.056 1.057,1.05 1.062,1.044 1.069,1.037 1.075,1.031 1.081,1.025 1.087,1.018 1.094,1.012 1.099,1.005 1.106,0.999 1.111,0.992 1.117,0.986 1.124,0.978 1.129,0.973 1.135,0.965 1.141,0.959 1.147,0.952 1.152,0.946 1.159,0.938 1.164,0.932 1.169,0.925 1.176,0.918 1.181,0.911 1.186,0.904 1.192,0.897 1.198,0.89 1.203,0.883 1.209,0.876 1.214,0.869 1.219,0.862 1.225,0.854 1.23,0.848 1.236,0.84 1.241,0.833 1.246,0.825 1.251,0.818 1.256,0.811 1.262,0.804 1.267,0.796 1.272,0.788 1.277,0.782 1.282,0.773 1.287,0.766 1.292,0.759 1.296,0.751 1.302,0.743 1.307,0.736 1.312,0.728 1.316,0.72 1.321,0.713 1.326,0.704 1.331,0.697 1.335,0.689 1.34,0.681 1.345,0.674 1.349,0.665 1.354,0.658 1.358,0.649 1.363,0.642 1.367,0.633 1.372,0.625 1.377,0.617 1.38,0.609 1.386,0.601 1.389,0.593 1.393,0.584 1.399,0.577 1.402,0.568 1.406,0.559 1.411,0.551 1.415,0.543 1.419,0.535 1.423,0.526 1.427,0.517 1.431,0.509 1.435,0.501 1.439,0.492 1.443,0.483 1.447,0.475 1.451,0.466 1.455,0.457 1.458,0.449 1.463,0.44 1.466,0.431 1.47,0.423 1.474,0.413 1.477,0.405 1.481,0.396 1.485,0.387 1.488,0.378 1.492,0.369 1.495,0.36 1.499,0.351 1.502,0.341 1.506,0.333 1.51,0.324 1.512,0.314 1.516,0.306 1.52,0.296 1.522,0.286 1.526,0.278 1.53,0.268 1.532,0.259 1.536,0.25 1.539,0.24 1.542,0.23 1.546,0.222 1.548,0.211 1.551,0.202 1.555,0.193 1.557,0.183 1.561,0.173 1.563,0.164 1.566,0.154 1.57,0.145 1.572,0.134 1.575,0.125 1.578,0.115 1.581,0.105 1.583,0.096 1.586,0.085 1.589,0.076 1.592,0.065 1.594,0.056 1.597,0.045 1.6,0.036 1.602,0.025 1.604,0.015 z"
       style="fill:#00adee"
       id="path108" /><path
       d="m 287.921,484.625 -1.261,-0.004 -1.26,-0.012 -1.258,-0.02 -1.255,-0.028 -1.255,-0.036 -1.252,-0.043 -1.25,-0.052 -1.248,-0.059 -1.247,-0.067 -1.244,-0.075 -1.243,-0.083 -1.24,-0.09 -1.238,-0.099 -1.236,-0.105 -1.234,-0.114 -1.232,-0.121 -1.23,-0.129 -1.227,-0.136 -1.226,-0.144 -1.222,-0.152 -1.221,-0.159 -1.219,-0.166 -1.216,-0.174 -1.214,-0.182 -1.211,-0.189 -1.209,-0.196 -1.206,-0.204 -1.204,-0.211 -1.202,-0.219 -1.199,-0.226 -1.196,-0.233 -1.194,-0.24 -1.191,-0.248 -1.188,-0.254 -1.186,-0.263 -1.183,-0.269 -1.181,-0.276 -1.178,-0.284 -1.175,-0.29 -1.172,-0.298 -1.169,-0.305 -1.167,-0.311 -1.163,-0.319 -1.161,-0.326 -1.158,-0.333 -1.155,-0.339 -1.152,-0.347 -1.149,-0.353 -1.146,-0.361 -1.142,-0.367 -1.14,-0.374 -1.137,-0.38 -1.133,-0.388 -1.131,-0.394 -1.127,-0.401 -1.124,-0.408 -1.121,-0.414 -1.118,-0.421 -1.114,-0.427 -1.111,-0.434 -1.108,-0.441 -1.104,-0.447 -1.101,-0.454 -1.097,-0.46 -1.094,-0.467 -1.091,-0.473 -1.087,-0.48 -1.084,-0.486 -1.08,-0.492 -1.077,-0.499 -1.073,-0.505 -1.069,-0.511 -1.066,-0.518 -1.062,-0.524 -1.059,-0.53 -1.055,-0.536 -1.051,-0.542 -1.048,-0.549 -1.043,-0.555 -1.04,-0.56 -1.036,-0.567 -1.032,-0.573 -1.029,-0.579 -1.024,-0.585 -1.021,-0.591 -1.017,-0.597 -1.012,-0.603 -1.009,-0.609 -1.005,-0.614 -1,-0.621 -0.997,-0.626 -0.993,-0.632 -0.988,-0.638 -0.985,-0.644 -0.98,-0.649 -0.976,-0.656 -0.972,-0.66 -0.967,-0.667 -0.964,-0.672 -0.959,-0.678 -0.955,-0.683 -0.951,-0.689 -0.946,-0.695 -0.942,-0.7 -0.937,-0.705 -0.934,-0.711 -0.928,-0.717 -0.925,-0.722 -0.919,-0.727 -0.916,-0.732 -0.911,-0.738 -0.906,-0.744 -0.902,-0.749 -0.897,-0.754 -0.892,-0.759 -0.888,-0.764 -0.883,-0.77 -0.879,-0.775 -0.874,-0.78 -0.869,-0.785 -0.864,-0.79 -0.86,-0.796 -0.855,-0.8 -0.85,-0.806 -0.845,-0.811 -0.84,-0.815 -0.836,-0.821 -0.83,-0.825 -0.825,-0.831 -0.821,-0.835 -0.816,-0.84 -0.81,-0.846 -0.806,-0.85 -0.8,-0.854 -0.796,-0.86 -0.79,-0.864 -0.785,-0.87 -0.78,-0.873 -0.775,-0.879 -0.77,-0.883 -0.764,-0.888 -0.76,-0.892 -0.754,-0.898 -0.748,-0.901 -0.744,-0.907 -0.738,-0.911 -0.732,-0.915 -0.728,-0.92 -0.722,-0.924 -0.716,-0.929 -0.711,-0.933 -0.706,-0.937 -0.7,-0.942 -0.694,-0.947 -0.689,-0.95 -0.683,-0.955 -0.678,-0.959 -0.672,-0.964 -0.667,-0.967 -0.661,-0.972 -0.655,-0.976 -0.649,-0.981 -0.644,-0.984 -0.638,-0.989 -0.632,-0.992 -0.627,-0.997 -0.62,-1.001 -0.615,-1.004 -0.608,-1.009 -0.603,-1.013 -0.597,-1.016 -0.591,-1.021 -0.585,-1.025 -0.579,-1.028 -0.573,-1.032 -0.567,-1.036 -0.561,-1.04 -0.554,-1.044 -0.549,-1.047 -0.542,-1.051 -0.537,-1.055 -0.53,-1.059 -0.524,-1.062 -0.517,-1.066 -0.511,-1.069 -0.505,-1.073 -0.499,-1.077 -0.492,-1.08 -0.486,-1.084 -0.48,-1.087 -0.473,-1.091 -0.467,-1.094 -0.46,-1.098 -0.454,-1.1 -0.447,-1.105 -0.441,-1.108 -0.434,-1.11 -0.427,-1.115 -0.421,-1.117 -0.415,-1.121 -0.407,-1.124 -0.401,-1.127 -0.394,-1.131 -0.388,-1.133 -0.381,-1.137 -0.374,-1.14 -0.367,-1.143 -0.36,-1.146 -0.353,-1.149 -0.347,-1.151 -0.34,-1.155 -0.332,-1.158 -0.326,-1.161 -0.319,-1.164 -0.312,-1.166 -0.304,-1.169 -0.298,-1.173 -0.291,-1.175 -0.283,-1.177 -0.276,-1.181 -0.27,-1.183 -0.262,-1.186 -0.255,-1.188 -0.247,-1.192 -0.241,-1.193 -0.233,-1.197 -0.225,-1.199 -0.219,-1.201 -0.211,-1.204 -0.204,-1.207 -0.196,-1.208 -0.189,-1.212 -0.182,-1.213 -0.174,-1.217 -0.166,-1.218 -0.159,-1.221 -0.152,-1.223 -0.144,-1.225 -0.136,-1.227 -0.129,-1.23 -0.121,-1.232 -0.114,-1.234 -0.106,-1.236 -0.098,-1.238 -0.09,-1.241 -0.083,-1.242 -0.075,-1.245 -0.067,-1.246 -0.059,-1.248 -0.052,-1.251 -0.043,-1.252 -0.036,-1.254 -0.028,-1.256 -0.02,-1.257 -0.012,-1.26 -0.004,-1.261 0.004,-1.261 0.012,-1.26 0.02,-1.258 0.028,-1.256 0.036,-1.254 0.043,-1.252 0.052,-1.25 0.059,-1.248 0.067,-1.247 0.075,-1.244 0.083,-1.243 0.09,-1.24 0.098,-1.238 0.106,-1.236 0.114,-1.234 0.121,-1.232 0.129,-1.23 0.136,-1.228 0.144,-1.225 0.152,-1.223 0.159,-1.221 0.166,-1.218 0.174,-1.216 0.182,-1.214 0.189,-1.211 0.196,-1.209 0.204,-1.206 0.211,-1.204 0.219,-1.202 0.225,-1.199 0.233,-1.196 0.241,-1.194 0.247,-1.191 0.255,-1.189 0.262,-1.186 0.27,-1.183 0.276,-1.18 0.283,-1.178 0.291,-1.175 0.298,-1.172 0.304,-1.17 0.312,-1.166 0.319,-1.164 0.326,-1.161 0.332,-1.157 0.34,-1.155 0.347,-1.152 0.353,-1.149 0.36,-1.146 0.367,-1.143 0.374,-1.14 0.381,-1.136 0.388,-1.134 0.394,-1.131 0.401,-1.127 0.407,-1.124 0.415,-1.121 0.421,-1.117 0.427,-1.114 0.434,-1.111 0.441,-1.108 0.447,-1.105 0.454,-1.101 0.46,-1.097 0.467,-1.094 0.473,-1.091 0.48,-1.087 0.486,-1.084 0.492,-1.08 0.499,-1.077 0.505,-1.073 0.511,-1.069 0.517,-1.066 0.524,-1.063 0.53,-1.058 0.537,-1.055 0.542,-1.051 0.549,-1.048 0.554,-1.043 0.561,-1.04 0.567,-1.036 0.573,-1.033 0.579,-1.028 0.585,-1.025 0.591,-1.02 0.597,-1.017 0.602,-1.013 0.609,-1.008 0.615,-1.005 0.62,-1.001 0.627,-0.997 0.632,-0.992 0.638,-0.989 0.643,-0.984 0.65,-0.981 0.655,-0.976 0.661,-0.972 0.666,-0.967 0.673,-0.964 0.677,-0.959 0.684,-0.955 0.689,-0.951 0.694,-0.946 0.7,-0.942 0.706,-0.937 0.711,-0.934 0.716,-0.928 0.722,-0.925 0.727,-0.92 0.733,-0.915 0.738,-0.911 0.744,-0.906 0.748,-0.902 0.754,-0.897 0.759,-0.892 0.765,-0.888 0.77,-0.884 0.774,-0.878 0.781,-0.874 0.785,-0.869 0.79,-0.865 0.795,-0.859 0.801,-0.855 0.806,-0.85 0.81,-0.845 0.816,-0.841 0.82,-0.835 0.826,-0.831 0.83,-0.825 0.836,-0.821 0.84,-0.815 0.845,-0.811 0.85,-0.806 0.855,-0.8 0.86,-0.796 0.864,-0.79 0.869,-0.785 0.874,-0.78 0.878,-0.775 0.884,-0.77 0.887,-0.765 0.893,-0.759 0.897,-0.754 0.902,-0.749 0.906,-0.743 0.911,-0.738 0.915,-0.733 0.92,-0.727 0.924,-0.722 0.929,-0.717 0.933,-0.711 0.938,-0.705 0.942,-0.7 0.946,-0.695 0.951,-0.689 0.955,-0.683 0.959,-0.678 0.963,-0.672 0.968,-0.667 0.972,-0.661 0.976,-0.655 0.98,-0.649 0.984,-0.644 0.989,-0.638 0.993,-0.632 0.996,-0.626 1.001,-0.621 1.005,-0.615 1.009,-0.608 1.012,-0.603 1.017,-0.597 1.02,-0.591 1.025,-0.585 1.028,-0.579 1.033,-0.573 1.036,-0.567 1.04,-0.561 1.043,-0.555 1.048,-0.548 1.051,-0.543 1.055,-0.536 1.058,-0.53 1.062,-0.524 1.066,-0.518 1.07,-0.511 1.073,-0.505 1.077,-0.499 1.08,-0.492 1.084,-0.486 1.087,-0.48 1.09,-0.473 1.095,-0.467 1.097,-0.46 1.101,-0.454 1.104,-0.447 1.108,-0.441 1.111,-0.434 1.114,-0.427 1.118,-0.421 1.121,-0.415 1.124,-0.407 1.127,-0.401 1.13,-0.394 1.134,-0.388 1.137,-0.381 1.139,-0.374 1.143,-0.367 1.146,-0.36 1.149,-0.353 1.152,-0.347 1.155,-0.34 1.158,-0.332 1.16,-0.326 1.164,-0.319 1.167,-0.312 1.169,-0.305 1.172,-0.297 1.175,-0.291 1.178,-0.283 1.18,-0.277 1.184,-0.269 1.185,-0.262 1.189,-0.255 1.191,-0.248 1.194,-0.24 1.196,-0.233 1.199,-0.226 1.202,-0.218 1.204,-0.212 1.206,-0.203 1.209,-0.197 1.211,-0.189 1.214,-0.181 1.216,-0.174 1.218,-0.167 1.221,-0.159 1.223,-0.152 1.226,-0.144 1.227,-0.136 1.23,-0.129 1.232,-0.121 1.234,-0.113 1.236,-0.106 1.238,-0.098 1.241,-0.091 1.242,-0.083 1.244,-0.075 1.247,-0.067 1.248,-0.059 1.25,-0.051 1.252,-0.044 1.255,-0.036 1.255,-0.028 1.258,-0.02 1.26,-0.012 1.261,-0.004 1.261,0.004 1.26,0.012 1.257,0.02 1.256,0.028 1.254,0.036 1.253,0.044 1.25,0.051 1.248,0.059 1.247,0.067 1.244,0.075 1.242,0.083 1.241,0.091 1.238,0.098 1.236,0.106 1.234,0.113 1.232,0.121 1.23,0.129 1.227,0.136 1.226,0.144 1.223,0.152 1.22,0.159 1.219,0.167 1.216,0.174 1.214,0.181 1.211,0.189 1.209,0.197 1.206,0.203 1.204,0.212 1.202,0.218 1.199,0.226 1.196,0.233 1.194,0.24 1.191,0.248 1.189,0.255 1.186,0.262 1.183,0.269 1.18,0.277 1.178,0.283 1.175,0.291 1.172,0.297 1.169,0.305 1.167,0.312 1.164,0.319 1.161,0.326 1.157,0.332 1.155,0.34 1.152,0.346 1.149,0.354 1.146,0.36 1.143,0.367 1.14,0.374 1.136,0.381 1.134,0.388 1.13,0.394 1.128,0.401 1.124,0.407 1.121,0.415 1.117,0.421 1.115,0.427 1.111,0.434 1.107,0.441 1.105,0.447 1.101,0.454 1.097,0.46 1.094,0.467 1.091,0.473 1.087,0.48 1.084,0.486 1.08,0.492 1.077,0.499 1.073,0.505 1.069,0.511 1.066,0.518 1.063,0.524 1.058,0.53 1.055,0.536 1.051,0.543 1.048,0.548 1.043,0.555 1.04,0.561 1.036,0.567 1.033,0.573 1.028,0.579 1.025,0.585 1.02,0.591 1.017,0.597 1.013,0.602 1.008,0.609 1.005,0.615 1.001,0.62 0.997,0.627 0.992,0.632 0.989,0.638 0.984,0.644 0.981,0.649 0.976,0.655 0.972,0.661 0.967,0.667 0.964,0.672 0.959,0.678 0.955,0.683 0.951,0.689 0.946,0.695 0.942,0.7 0.937,0.705 0.934,0.711 0.928,0.717 0.925,0.722 0.92,0.727 0.915,0.733 0.911,0.738 0.906,0.743 0.902,0.749 0.897,0.754 0.893,0.759 0.887,0.765 0.884,0.769 0.878,0.775 0.874,0.781 0.869,0.785 0.865,0.79 0.859,0.796 0.855,0.8 0.85,0.806 0.845,0.81 0.841,0.816 0.835,0.821 0.831,0.825 0.825,0.831 0.821,0.835 0.815,0.84 0.811,0.846 0.806,0.85 0.8,0.854 0.796,0.86 0.79,0.865 0.785,0.869 0.78,0.873 0.775,0.879 0.77,0.883 0.765,0.888 0.759,0.893 0.754,0.897 0.748,0.902 0.744,0.906 0.738,0.911 0.733,0.915 0.727,0.92 0.722,0.924 0.716,0.929 0.711,0.933 0.706,0.938 0.7,0.942 0.695,0.946 0.689,0.951 0.683,0.955 0.678,0.959 0.672,0.963 0.666,0.968 0.661,0.972 0.656,0.976 0.649,0.98 0.644,0.985 0.638,0.988 0.632,0.993 0.626,0.997 0.621,1.001 0.614,1.004 0.609,1.009 0.603,1.013 0.597,1.016 0.591,1.021 0.585,1.025 0.579,1.028 0.573,1.032 0.567,1.037 0.561,1.039 0.554,1.044 0.549,1.048 0.542,1.051 0.537,1.055 0.53,1.058 0.524,1.062 0.517,1.066 0.512,1.07 0.505,1.073 0.498,1.077 0.493,1.08 0.486,1.083 0.479,1.088 0.474,1.09 0.466,1.095 0.461,1.097 0.453,1.101 0.448,1.104 0.44,1.108 0.435,1.111 0.427,1.115 0.421,1.117 0.414,1.121 0.408,1.124 0.401,1.127 0.394,1.131 0.388,1.133 0.38,1.137 0.374,1.14 0.368,1.143 0.36,1.145 0.353,1.15 0.347,1.151 0.339,1.155 0.333,1.158 0.326,1.161 0.319,1.164 0.312,1.166 0.304,1.17 0.298,1.172 0.291,1.175 0.283,1.177 0.277,1.181 0.269,1.183 0.262,1.186 0.255,1.189 0.247,1.191 0.241,1.194 0.233,1.196 0.226,1.199 0.218,1.201 0.211,1.204 0.204,1.207 0.197,1.209 0.188,1.211 0.182,1.214 0.174,1.216 0.167,1.218 0.159,1.221 0.151,1.223 0.144,1.225 0.137,1.228 0.129,1.23 0.121,1.232 0.113,1.234 0.106,1.236 0.098,1.238 0.091,1.24 0.082,1.243 0.075,1.244 0.067,1.246 0.06,1.249 0.051,1.25 0.044,1.253 0.036,1.253 0.027,1.256 0.02,1.258 0.012,1.26 0.004,1.261 -0.004,1.261 -0.012,1.26 -0.02,1.257 -0.027,1.256 -0.036,1.254 -0.044,1.252 -0.051,1.251 -0.06,1.248 -0.067,1.247 -0.075,1.244 -0.082,1.242 -0.091,1.241 -0.098,1.238 -0.106,1.236 -0.113,1.234 -0.121,1.232 -0.129,1.23 -0.137,1.227 -0.144,1.226 -0.151,1.222 -0.159,1.221 -0.167,1.219 -0.174,1.216 -0.182,1.214 -0.188,1.211 -0.197,1.209 -0.204,1.206 -0.211,1.204 -0.218,1.201 -0.226,1.199 -0.233,1.197 -0.241,1.194 -0.247,1.191 -0.255,1.188 -0.262,1.186 -0.269,1.183 -0.277,1.181 -0.283,1.178 -0.291,1.175 -0.298,1.172 -0.304,1.169 -0.312,1.167 -0.319,1.163 -0.326,1.161 -0.333,1.158 -0.339,1.155 -0.347,1.152 -0.353,1.149 -0.361,1.145 -0.367,1.143 -0.374,1.14 -0.38,1.137 -0.388,1.133 -0.394,1.131 -0.401,1.127 -0.408,1.124 -0.414,1.121 -0.421,1.118 -0.428,1.114 -0.434,1.111 -0.44,1.107 -0.448,1.105 -0.453,1.101 -0.461,1.097 -0.467,1.094 -0.473,1.091 -0.479,1.087 -0.486,1.084 -0.493,1.08 -0.498,1.077 -0.505,1.073 -0.512,1.069 -0.517,1.066 -0.524,1.062 -0.53,1.059 -0.537,1.055 -0.542,1.051 -0.549,1.048 -0.554,1.043 -0.561,1.04 -0.567,1.036 -0.573,1.032 -0.579,1.029 -0.585,1.024 -0.591,1.021 -0.597,1.017 -0.603,1.012 -0.609,1.009 -0.614,1.005 -0.621,1 -0.626,0.997 -0.632,0.993 -0.638,0.988 -0.644,0.985 -0.65,0.98 -0.655,0.976 -0.661,0.972 -0.666,0.968 -0.672,0.963 -0.678,0.959 -0.684,0.955 -0.689,0.951 -0.694,0.946 -0.7,0.942 -0.706,0.938 -0.711,0.933 -0.716,0.928 -0.722,0.925 -0.727,0.919 -0.733,0.916 -0.738,0.911 -0.744,0.906 -0.748,0.902 -0.754,0.897 -0.76,0.892 -0.764,0.888 -0.77,0.883 -0.775,0.879 -0.78,0.874 -0.785,0.869 -0.791,0.864 -0.795,0.86 -0.8,0.855 -0.806,0.85 -0.811,0.845 -0.815,0.84 -0.821,0.835 -0.826,0.831 -0.83,0.825 -0.836,0.821 -0.84,0.816 -0.845,0.81 -0.85,0.806 -0.855,0.8 -0.859,0.796 -0.865,0.79 -0.869,0.785 -0.874,0.78 -0.879,0.775 -0.883,0.77 -0.888,0.764 -0.892,0.76 -0.898,0.754 -0.901,0.748 -0.906,0.744 -0.911,0.738 -0.916,0.732 -0.92,0.728 -0.924,0.721 -0.929,0.717 -0.933,0.711 -0.937,0.706 -0.942,0.7 -0.947,0.694 -0.95,0.689 -0.955,0.683 -0.959,0.678 -0.964,0.672 -0.968,0.667 -0.971,0.661 -0.977,0.655 -0.98,0.649 -0.984,0.644 -0.989,0.638 -0.993,0.632 -0.996,0.626 -1.001,0.621 -1.005,0.615 -1.009,0.608 -1.012,0.603 -1.017,0.597 -1.021,0.591 -1.024,0.585 -1.028,0.579 -1.033,0.573 -1.036,0.567 -1.04,0.561 -1.044,0.554 -1.047,0.549 -1.051,0.542 -1.055,0.536 -1.059,0.53 -1.062,0.524 -1.066,0.518 -1.069,0.511 -1.073,0.505 -1.077,0.499 -1.08,0.492 -1.084,0.486 -1.087,0.48 -1.091,0.473 -1.094,0.467 -1.098,0.46 -1.101,0.454 -1.104,0.447 -1.108,0.441 -1.111,0.434 -1.114,0.427 -1.117,0.421 -1.121,0.414 -1.125,0.408 -1.127,0.401 -1.13,0.394 -1.134,0.388 -1.136,0.38 -1.14,0.374 -1.143,0.367 -1.146,0.361 -1.149,0.353 -1.152,0.347 -1.155,0.339 -1.158,0.333 -1.16,0.326 -1.164,0.319 -1.167,0.311 -1.169,0.305 -1.172,0.298 -1.175,0.29 -1.178,0.284 -1.18,0.276 -1.184,0.269 -1.186,0.263 -1.188,0.254 -1.191,0.248 -1.194,0.24 -1.196,0.233 -1.199,0.226 -1.202,0.219 -1.204,0.211 -1.206,0.204 -1.209,0.196 -1.211,0.189 -1.214,0.182 -1.216,0.174 -1.219,0.166 -1.221,0.159 -1.223,0.152 -1.225,0.144 -1.227,0.136 -1.23,0.129 -1.232,0.121 -1.234,0.114 -1.236,0.105 -1.238,0.099 -1.241,0.09 -1.242,0.083 -1.245,0.075 -1.246,0.067 -1.248,0.059 -1.25,0.052 -1.253,0.043 -1.254,0.036 -1.256,0.028 -1.257,0.02 -1.26,0.012 z m 0,-28.552 1.08,-0.004 1.079,-0.01 1.077,-0.017 1.075,-0.024 1.074,-0.03 1.071,-0.038 1.07,-0.044 1.068,-0.05 1.066,-0.058 1.064,-0.064 1.062,-0.071 1.061,-0.077 1.058,-0.084 1.057,-0.09 1.054,-0.097 1.052,-0.104 1.051,-0.11 1.049,-0.116 1.046,-0.123 1.045,-0.13 1.042,-0.136 1.04,-0.142 1.038,-0.148 1.036,-0.155 1.034,-0.162 1.032,-0.167 1.03,-0.174 1.027,-0.18 1.025,-0.187 1.023,-0.192 1.021,-0.199 1.018,-0.205 1.016,-0.212 1.014,-0.217 1.012,-0.223 1.009,-0.23 1.007,-0.236 1.004,-0.242 1.002,-0.247 1,-0.254 0.997,-0.26 0.995,-0.266 0.992,-0.272 0.99,-0.278 0.988,-0.283 0.985,-0.29 0.982,-0.296 0.98,-0.301 0.977,-0.307 0.974,-0.313 0.972,-0.319 0.97,-0.325 0.966,-0.33 0.964,-0.336 0.962,-0.342 0.958,-0.348 0.956,-0.353 0.953,-0.359 0.951,-0.365 0.947,-0.37 0.945,-0.376 0.942,-0.381 0.939,-0.387 0.936,-0.393 0.933,-0.398 0.931,-0.404 0.927,-0.409 0.925,-0.414 0.921,-0.42 0.919,-0.426 0.915,-0.431 0.913,-0.436 0.909,-0.442 0.907,-0.446 0.903,-0.453 0.9,-0.457 0.897,-0.463 0.894,-0.469 0.891,-0.473 0.888,-0.479 0.884,-0.483 0.881,-0.489 0.878,-0.495 0.875,-0.499 0.871,-0.504 0.868,-0.51 0.864,-0.515 0.862,-0.52 0.858,-0.524 0.854,-0.53 0.851,-0.535 0.848,-0.54 0.844,-0.545 0.841,-0.549 0.837,-0.555 0.833,-0.559 0.831,-0.565 0.826,-0.569 0.823,-0.574 0.819,-0.579 0.816,-0.584 0.812,-0.589 0.809,-0.593 0.804,-0.598 0.802,-0.603 0.797,-0.607 0.793,-0.612 0.79,-0.617 0.786,-0.621 0.782,-0.626 0.778,-0.631 0.775,-0.635 0.771,-0.64 0.766,-0.644 0.763,-0.649 0.759,-0.653 0.754,-0.658 0.751,-0.662 0.747,-0.667 0.743,-0.671 0.739,-0.676 0.734,-0.679 0.731,-0.684 0.726,-0.689 0.723,-0.693 0.718,-0.697 0.714,-0.701 0.71,-0.706 0.705,-0.709 0.702,-0.714 0.697,-0.719 0.692,-0.722 0.689,-0.726 0.684,-0.731 0.68,-0.735 0.675,-0.738 0.672,-0.743 0.666,-0.747 0.662,-0.751 0.658,-0.754 0.654,-0.759 0.648,-0.763 0.645,-0.766 0.64,-0.771 0.635,-0.774 0.63,-0.779 0.626,-0.782 0.622,-0.786 0.617,-0.789 0.612,-0.794 0.607,-0.797 0.603,-0.801 0.598,-0.805 0.594,-0.808 0.588,-0.812 0.584,-0.816 0.579,-0.819 0.574,-0.823 0.569,-0.827 0.565,-0.83 0.559,-0.833 0.555,-0.838 0.55,-0.84 0.545,-0.845 0.539,-0.847 0.535,-0.851 0.53,-0.855 0.525,-0.857 0.52,-0.862 0.514,-0.864 0.51,-0.868 0.505,-0.872 0.499,-0.874 0.494,-0.878 0.489,-0.881 0.484,-0.884 0.479,-0.888 0.473,-0.891 0.468,-0.893 0.463,-0.897 0.458,-0.901 0.452,-0.903 0.447,-0.906 0.442,-0.91 0.436,-0.912 0.431,-0.916 0.425,-0.918 0.421,-0.922 0.414,-0.924 0.409,-0.928 0.404,-0.93 0.398,-0.933 0.393,-0.936 0.387,-0.939 0.381,-0.942 0.376,-0.945 0.37,-0.948 0.365,-0.95 0.359,-0.953 0.353,-0.956 0.348,-0.959 0.342,-0.961 0.336,-0.964 0.33,-0.966 0.325,-0.97 0.319,-0.971 0.313,-0.975 0.307,-0.977 0.302,-0.98 0.295,-0.982 0.29,-0.985 0.284,-0.987 0.277,-0.99 0.272,-0.993 0.266,-0.994 0.26,-0.998 0.254,-0.999 0.248,-1.002 0.242,-1.005 0.235,-1.006 0.23,-1.01 0.224,-1.011 0.217,-1.014 0.211,-1.016 0.205,-1.019 0.199,-1.02 0.193,-1.023 0.186,-1.026 0.18,-1.027 0.174,-1.029 0.168,-1.032 0.161,-1.034 0.155,-1.036 0.149,-1.038 0.142,-1.04 0.136,-1.043 0.129,-1.044 0.123,-1.047 0.117,-1.048 0.11,-1.051 0.103,-1.052 0.097,-1.055 0.091,-1.056 0.084,-1.059 0.077,-1.06 0.071,-1.062 0.064,-1.064 0.057,-1.066 0.051,-1.068 0.044,-1.07 0.037,-1.071 0.031,-1.074 0.024,-1.075 0.017,-1.077 0.01,-1.079 0.003,-1.08 -0.003,-1.081 -0.01,-1.078 -0.017,-1.077 -0.024,-1.075 -0.031,-1.074 -0.037,-1.072 -0.044,-1.069 -0.051,-1.068 -0.057,-1.066 -0.064,-1.064 -0.071,-1.062 -0.077,-1.061 -0.084,-1.058 -0.091,-1.057 -0.097,-1.054 -0.103,-1.053 -0.11,-1.05 -0.117,-1.049 -0.123,-1.046 -0.129,-1.045 -0.136,-1.042 -0.142,-1.04 -0.149,-1.038 -0.155,-1.036 -0.161,-1.034 -0.168,-1.032 -0.174,-1.03 -0.18,-1.027 -0.186,-1.025 -0.193,-1.023 -0.199,-1.021 -0.205,-1.018 -0.211,-1.016 -0.217,-1.014 -0.224,-1.012 -0.23,-1.009 -0.235,-1.007 -0.242,-1.004 -0.248,-1.002 -0.254,-1 -0.26,-0.998 -0.266,-0.994 -0.272,-0.993 -0.277,-0.989 -0.284,-0.988 -0.29,-0.985 -0.295,-0.982 -0.302,-0.98 -0.307,-0.977 -0.313,-0.975 -0.319,-0.971 -0.325,-0.97 -0.33,-0.966 -0.336,-0.964 -0.342,-0.962 -0.348,-0.958 -0.353,-0.956 -0.359,-0.953 -0.365,-0.951 -0.37,-0.947 -0.376,-0.945 -0.381,-0.942 -0.387,-0.939 -0.393,-0.936 -0.398,-0.933 -0.404,-0.931 -0.409,-0.927 -0.415,-0.925 -0.42,-0.921 -0.425,-0.919 -0.431,-0.915 -0.436,-0.913 -0.442,-0.909 -0.447,-0.907 -0.452,-0.903 -0.458,-0.9 -0.463,-0.897 -0.468,-0.894 -0.473,-0.891 -0.479,-0.888 -0.484,-0.884 -0.489,-0.881 -0.494,-0.878 -0.499,-0.874 -0.505,-0.872 -0.51,-0.868 -0.514,-0.864 -0.52,-0.862 -0.525,-0.858 -0.53,-0.854 -0.535,-0.851 -0.539,-0.848 -0.545,-0.844 -0.55,-0.841 -0.555,-0.837 -0.559,-0.833 -0.565,-0.831 -0.569,-0.826 -0.574,-0.823 -0.579,-0.82 -0.584,-0.815 -0.589,-0.812 -0.593,-0.809 -0.598,-0.805 -0.603,-0.801 -0.607,-0.797 -0.612,-0.793 -0.617,-0.79 -0.622,-0.786 -0.626,-0.782 -0.63,-0.778 -0.636,-0.775 -0.639,-0.77 -0.645,-0.767 -0.649,-0.763 -0.653,-0.759 -0.658,-0.754 -0.662,-0.751 -0.667,-0.747 -0.671,-0.743 -0.675,-0.739 -0.68,-0.734 -0.684,-0.731 -0.689,-0.726 -0.692,-0.723 -0.698,-0.718 -0.701,-0.714 -0.706,-0.71 -0.709,-0.705 -0.714,-0.701 -0.719,-0.698 -0.722,-0.692 -0.726,-0.689 -0.731,-0.684 -0.735,-0.68 -0.738,-0.675 -0.743,-0.672 -0.747,-0.666 -0.751,-0.662 -0.755,-0.658 -0.758,-0.654 -0.763,-0.648 -0.767,-0.645 -0.77,-0.64 -0.775,-0.635 -0.778,-0.63 -0.782,-0.627 -0.786,-0.621 -0.79,-0.617 -0.793,-0.612 -0.798,-0.607 -0.801,-0.603 -0.804,-0.598 -0.809,-0.594 -0.812,-0.588 -0.816,-0.584 -0.819,-0.579 -0.823,-0.574 -0.827,-0.569 -0.83,-0.565 -0.833,-0.559 -0.838,-0.555 -0.84,-0.55 -0.845,-0.545 -0.847,-0.54 -0.851,-0.534 -0.855,-0.53 -0.858,-0.525 -0.861,-0.52 -0.865,-0.515 -0.868,-0.509 -0.871,-0.505 -0.874,-0.499 -0.878,-0.494 -0.881,-0.489 -0.885,-0.484 -0.887,-0.479 -0.891,-0.473 -0.894,-0.469 -0.897,-0.462 -0.9,-0.458 -0.904,-0.452 -0.906,-0.447 -0.909,-0.442 -0.913,-0.436 -0.916,-0.431 -0.918,-0.426 -0.921,-0.42 -0.925,-0.414 -0.928,-0.409 -0.93,-0.404 -0.933,-0.398 -0.936,-0.393 -0.939,-0.387 -0.942,-0.381 -0.945,-0.376 -0.948,-0.37 -0.95,-0.365 -0.953,-0.359 -0.956,-0.353 -0.959,-0.348 -0.961,-0.342 -0.964,-0.336 -0.967,-0.331 -0.969,-0.324 -0.972,-0.319 -0.974,-0.313 -0.978,-0.308 -0.979,-0.301 -0.983,-0.295 -0.984,-0.29 -0.988,-0.284 -0.99,-0.278 -0.992,-0.271 -0.995,-0.266 -0.997,-0.26 -1,-0.254 -1.002,-0.248 -1.004,-0.242 -1.007,-0.236 -1.009,-0.229 -1.012,-0.224 -1.014,-0.217 -1.016,-0.211 -1.018,-0.205 -1.021,-0.199 -1.023,-0.193 -1.025,-0.186 -1.028,-0.181 -1.029,-0.174 -1.032,-0.167 -1.034,-0.161 -1.036,-0.155 -1.038,-0.149 -1.04,-0.142 -1.043,-0.136 -1.044,-0.13 -1.047,-0.123 -1.048,-0.116 -1.051,-0.11 -1.052,-0.104 -1.055,-0.097 -1.056,-0.09 -1.058,-0.084 -1.061,-0.077 -1.062,-0.071 -1.064,-0.064 -1.066,-0.057 -1.068,-0.051 -1.07,-0.044 -1.071,-0.038 -1.074,-0.03 -1.075,-0.024 -1.077,-0.017 -1.079,-0.01 -1.08,-0.004 -1.081,0.004 -1.078,0.01 -1.077,0.017 -1.075,0.024 -1.074,0.03 -1.071,0.038 -1.07,0.044 -1.068,0.051 -1.066,0.057 -1.064,0.064 -1.062,0.071 -1.061,0.077 -1.058,0.084 -1.057,0.09 -1.054,0.097 -1.053,0.104 -1.05,0.11 -1.049,0.116 -1.046,0.123 -1.044,0.13 -1.043,0.136 -1.04,0.142 -1.038,0.149 -1.036,0.155 -1.034,0.161 -1.032,0.167 -1.029,0.174 -1.028,0.181 -1.025,0.186 -1.023,0.193 -1.02,0.199 -1.019,0.205 -1.016,0.211 -1.014,0.217 -1.011,0.224 -1.01,0.229 -1.006,0.236 -1.005,0.242 -1.002,0.248 -1,0.254 -0.997,0.26 -0.995,0.265 -0.992,0.272 -0.99,0.278 -0.987,0.284 -0.985,0.29 -0.982,0.295 -0.98,0.301 -0.977,0.308 -0.975,0.313 -0.972,0.319 -0.969,0.324 -0.967,0.331 -0.964,0.336 -0.961,0.342 -0.958,0.348 -0.956,0.353 -0.953,0.359 -0.951,0.365 -0.947,0.37 -0.945,0.376 -0.942,0.381 -0.939,0.387 -0.936,0.393 -0.933,0.398 -0.931,0.404 -0.927,0.409 -0.925,0.414 -0.921,0.42 -0.919,0.426 -0.915,0.431 -0.913,0.436 -0.909,0.442 -0.906,0.447 -0.904,0.452 -0.9,0.458 -0.897,0.462 -0.894,0.469 -0.89,0.473 -0.888,0.479 -0.884,0.484 -0.881,0.489 -0.878,0.494 -0.875,0.499 -0.871,0.505 -0.868,0.509 -0.865,0.515 -0.861,0.52 -0.858,0.525 -0.854,0.529 -0.851,0.535 -0.848,0.54 -0.844,0.545 -0.841,0.55 -0.837,0.554 -0.833,0.56 -0.831,0.564 -0.826,0.57 -0.823,0.574 -0.819,0.579 -0.816,0.584 -0.812,0.588 -0.808,0.594 -0.805,0.598 -0.801,0.602 -0.797,0.608 -0.794,0.612 -0.79,0.617 -0.786,0.621 -0.782,0.626 -0.778,0.631 -0.774,0.635 -0.771,0.64 -0.766,0.644 -0.763,0.649 -0.759,0.654 -0.755,0.657 -0.75,0.663 -0.747,0.666 -0.743,0.671 -0.739,0.676 -0.734,0.68 -0.731,0.684 -0.726,0.688 -0.723,0.693 -0.718,0.697 -0.714,0.701 -0.71,0.706 -0.705,0.71 -0.701,0.714 -0.697,0.718 -0.693,0.722 -0.689,0.727 -0.684,0.73 -0.68,0.735 -0.675,0.739 -0.671,0.743 -0.667,0.747 -0.662,0.75 -0.658,0.755 -0.653,0.759 -0.649,0.763 -0.644,0.766 -0.64,0.771 -0.635,0.774 -0.631,0.779 -0.626,0.782 -0.621,0.786 -0.617,0.789 -0.612,0.794 -0.608,0.797 -0.602,0.801 -0.598,0.805 -0.594,0.808 -0.588,0.813 -0.584,0.815 -0.579,0.82 -0.574,0.823 -0.569,0.826 -0.565,0.83 -0.559,0.834 -0.555,0.837 -0.55,0.841 -0.545,0.844 -0.539,0.848 -0.535,0.851 -0.53,0.854 -0.525,0.858 -0.52,0.861 -0.514,0.865 -0.51,0.868 -0.504,0.871 -0.5,0.875 -0.494,0.878 -0.489,0.881 -0.484,0.884 -0.478,0.888 -0.474,0.89 -0.468,0.894 -0.463,0.897 -0.457,0.901 -0.453,0.903 -0.447,0.906 -0.441,0.91 -0.437,0.912 -0.43,0.916 -0.426,0.918 -0.42,0.922 -0.414,0.925 -0.41,0.927 -0.403,0.93 -0.398,0.934 -0.393,0.936 -0.387,0.939 -0.381,0.942 -0.376,0.945 -0.37,0.947 -0.365,0.951 -0.359,0.953 -0.353,0.955 -0.348,0.959 -0.342,0.961 -0.336,0.964 -0.33,0.967 -0.325,0.969 -0.319,0.972 -0.313,0.975 -0.307,0.977 -0.302,0.98 -0.295,0.982 -0.29,0.985 -0.284,0.987 -0.277,0.99 -0.272,0.993 -0.266,0.994 -0.26,0.998 -0.254,0.999 -0.248,1.002 -0.241,1.005 -0.236,1.007 -0.23,1.009 -0.223,1.012 -0.218,1.013 -0.211,1.017 -0.205,1.018 -0.199,1.021 -0.193,1.023 -0.186,1.025 -0.18,1.027 -0.174,1.03 -0.168,1.032 -0.161,1.033 -0.155,1.037 -0.148,1.038 -0.143,1.04 -0.136,1.042 -0.129,1.045 -0.123,1.046 -0.116,1.049 -0.11,1.05 -0.104,1.053 -0.097,1.054 -0.09,1.057 -0.084,1.058 -0.078,1.06 -0.07,1.063 -0.064,1.064 -0.058,1.066 -0.051,1.068 -0.044,1.07 -0.037,1.071 -0.031,1.073 -0.023,1.076 -0.017,1.077 -0.011,1.078 -0.003,1.081 0.003,1.08 0.011,1.079 0.017,1.077 0.023,1.075 0.031,1.074 0.037,1.071 0.044,1.07 0.051,1.068 0.058,1.066 0.064,1.064 0.07,1.062 0.078,1.061 0.084,1.058 0.09,1.056 0.097,1.055 0.104,1.052 0.11,1.051 0.116,1.048 0.123,1.047 0.129,1.044 0.136,1.043 0.143,1.04 0.148,1.038 0.155,1.036 0.161,1.034 0.168,1.032 0.174,1.029 0.18,1.028 0.186,1.025 0.193,1.023 0.199,1.02 0.205,1.019 0.211,1.016 0.218,1.014 0.223,1.011 0.23,1.009 0.236,1.007 0.241,1.005 0.248,1.002 0.254,1 0.26,0.997 0.266,0.995 0.272,0.992 0.277,0.99 0.284,0.987 0.29,0.985 0.295,0.982 0.302,0.98 0.307,0.977 0.313,0.975 0.319,0.972 0.324,0.969 0.331,0.967 0.336,0.964 0.342,0.961 0.348,0.958 0.353,0.956 0.359,0.953 0.365,0.951 0.37,0.947 0.376,0.945 0.381,0.942 0.387,0.939 0.393,0.936 0.398,0.933 0.403,0.931 0.41,0.927 0.414,0.925 0.42,0.921 0.426,0.919 0.43,0.915 0.437,0.913 0.441,0.909 0.447,0.906 0.452,0.904 0.458,0.9 0.463,0.897 0.468,0.894 0.474,0.891 0.478,0.887 0.484,0.884 0.489,0.881 0.494,0.878 0.5,0.875 0.504,0.871 0.51,0.868 0.514,0.865 0.52,0.861 0.525,0.858 0.53,0.854 0.535,0.851 0.539,0.848 0.545,0.844 0.55,0.841 0.554,0.837 0.56,0.833 0.564,0.831 0.57,0.826 0.574,0.823 0.579,0.819 0.584,0.816 0.588,0.812 0.593,0.809 0.598,0.804 0.603,0.801 0.608,0.797 0.612,0.794 0.617,0.79 0.621,0.786 0.626,0.782 0.631,0.778 0.635,0.774 0.64,0.771 0.644,0.766 0.649,0.763 0.653,0.759 0.658,0.755 0.662,0.75 0.667,0.747 0.671,0.743 0.675,0.739 0.68,0.734 0.684,0.731 0.689,0.726 0.692,0.723 0.697,0.718 0.702,0.714 0.705,0.71 0.71,0.705 0.714,0.701 0.718,0.697 0.723,0.693 0.726,0.689 0.73,0.684 0.735,0.68 0.739,0.675 0.742,0.671 0.747,0.667 0.751,0.662 0.755,0.658 0.759,0.653 0.762,0.649 0.767,0.644 0.77,0.64 0.775,0.635 0.778,0.631 0.782,0.626 0.786,0.621 0.79,0.617 0.793,0.612 0.798,0.608 0.801,0.602 0.804,0.598 0.809,0.594 0.812,0.588 0.815,0.584 0.82,0.579 0.823,0.574 0.826,0.569 0.83,0.565 0.834,0.559 0.837,0.555 0.841,0.55 0.844,0.544 0.847,0.54 0.852,0.535 0.854,0.53 0.858,0.525 0.861,0.519 0.865,0.515 0.868,0.51 0.871,0.504 0.874,0.499 0.878,0.495 0.881,0.489 0.885,0.484 0.887,0.478 0.891,0.474 0.894,0.468 0.897,0.463 0.9,0.457 0.903,0.453 0.907,0.447 0.909,0.441 0.913,0.436 0.915,0.431 0.919,0.426 0.921,0.42 0.925,0.414 0.927,0.409 0.93,0.404 0.934,0.398 0.936,0.393 0.939,0.387 0.942,0.381 0.945,0.376 0.947,0.37 0.951,0.365 0.953,0.359 0.955,0.353 0.959,0.348 0.961,0.342 0.964,0.336 0.967,0.33 0.969,0.325 0.972,0.319 0.975,0.313 0.977,0.307 0.979,0.301 0.983,0.296 0.985,0.29 0.987,0.283 0.99,0.278 0.992,0.272 0.995,0.266 0.997,0.26 1,0.254 1.002,0.247 1.004,0.242 1.007,0.236 1.009,0.23 1.012,0.223 1.014,0.217 1.016,0.212 1.018,0.205 1.021,0.199 1.023,0.192 1.025,0.187 1.028,0.18 1.029,0.174 1.032,0.167 1.034,0.162 1.036,0.155 1.038,0.148 1.04,0.143 1.042,0.135 1.045,0.13 1.046,0.123 1.049,0.116 1.051,0.11 1.052,0.104 1.054,0.097 1.057,0.09 1.058,0.084 1.061,0.077 1.062,0.071 1.064,0.064 1.066,0.058 1.068,0.05 1.07,0.044 1.071,0.038 1.073,0.03 1.076,0.024 1.077,0.017 1.078,0.01 z"
       style="fill:#00adee"
       id="path110" /><path
       d="m 1060.84,564.002 -1.788,-0.005 -1.786,-0.017 -1.783,-0.028 -1.78,-0.04 -1.778,-0.051 -1.775,-0.061 -1.772,-0.073 -1.769,-0.084 -1.767,-0.096 -1.763,-0.106 -1.761,-0.117 -1.758,-0.128 -1.755,-0.139 -1.752,-0.15 -1.749,-0.161 -1.745,-0.172 -1.743,-0.182 -1.739,-0.194 -1.737,-0.204 -1.733,-0.215 -1.73,-0.225 -1.726,-0.236 -1.723,-0.247 -1.72,-0.257 -1.717,-0.268 -1.712,-0.278 -1.71,-0.289 -1.706,-0.299 -1.702,-0.31 -1.699,-0.319 -1.695,-0.331 -1.692,-0.34 -1.687,-0.351 -1.684,-0.361 -1.68,-0.372 -1.677,-0.381 -1.672,-0.392 -1.669,-0.401 -1.665,-0.412 -1.661,-0.422 -1.656,-0.432 -1.653,-0.441 -1.649,-0.452 -1.644,-0.462 -1.641,-0.471 -1.636,-0.481 -1.632,-0.491 -1.628,-0.501 -1.623,-0.51 -1.619,-0.521 -1.615,-0.529 -1.611,-0.54 -1.606,-0.549 -1.601,-0.558 -1.598,-0.568 -1.592,-0.578 -1.588,-0.587 -1.583,-0.596 -1.579,-0.606 -1.574,-0.615 -1.57,-0.625 -1.564,-0.633 -1.56,-0.643 -1.555,-0.652 -1.55,-0.662 -1.546,-0.67 -1.54,-0.68 -1.536,-0.688 -1.53,-0.698 -1.526,-0.707 -1.52,-0.715 -1.516,-0.725 -1.51,-0.733 -1.505,-0.742 -1.5,-0.751 -1.495,-0.76 -1.489,-0.769 -1.484,-0.777 -1.479,-0.786 -1.474,-0.795 -1.468,-0.803 -1.463,-0.812 -1.457,-0.82 -1.451,-0.829 -1.447,-0.838 -1.44,-0.845 -1.436,-0.855 -1.429,-0.862 -1.424,-0.872 -1.418,-0.879 -1.412,-0.887 -1.407,-0.896 -1.401,-0.904 -1.395,-0.913 -1.389,-0.92 -1.383,-0.928 -1.378,-0.937 -1.371,-0.944 -1.365,-0.953 -1.36,-0.96 -1.353,-0.969 -1.347,-0.976 -1.341,-0.985 -1.335,-0.992 -1.329,-0.999 -1.322,-1.008 -1.316,-1.015 -1.31,-1.024 -1.304,-1.03 -1.297,-1.039 -1.291,-1.045 -1.284,-1.054 -1.279,-1.061 -1.271,-1.069 -1.264,-1.076 -1.259,-1.083 -1.252,-1.091 -1.245,-1.098 -1.238,-1.106 -1.232,-1.113 -1.225,-1.12 -1.219,-1.127 -1.211,-1.135 -1.205,-1.141 -1.198,-1.149 -1.191,-1.156 -1.183,-1.163 -1.177,-1.17 -1.171,-1.177 -1.163,-1.184 -1.155,-1.191 -1.149,-1.198 -1.142,-1.204 -1.135,-1.212 -1.127,-1.218 -1.12,-1.225 -1.113,-1.232 -1.106,-1.239 -1.098,-1.245 -1.091,-1.251 -1.083,-1.259 -1.076,-1.265 -1.069,-1.271 -1.061,-1.278 -1.053,-1.285 -1.046,-1.29 -1.039,-1.298 -1.031,-1.303 -1.023,-1.31 -1.015,-1.316 -1.008,-1.323 -1,-1.328 -0.992,-1.335 -0.984,-1.341 -0.976,-1.348 -0.969,-1.353 -0.96,-1.359 -0.953,-1.365 -0.945,-1.372 -0.936,-1.377 -0.929,-1.383 -0.92,-1.39 -0.912,-1.394 -0.904,-1.401 -0.896,-1.407 -0.888,-1.412 -0.879,-1.419 -0.871,-1.423 -0.863,-1.43 -0.854,-1.435 -0.846,-1.44 -0.837,-1.447 -0.829,-1.451 -0.821,-1.458 -0.812,-1.462 -0.803,-1.468 -0.795,-1.474 -0.786,-1.479 -0.777,-1.484 -0.769,-1.489 -0.759,-1.495 -0.752,-1.5 -0.742,-1.505 -0.733,-1.511 -0.725,-1.515 -0.715,-1.521 -0.707,-1.525 -0.698,-1.53 -0.688,-1.536 -0.68,-1.54 -0.67,-1.546 -0.662,-1.55 -0.652,-1.555 -0.643,-1.56 -0.633,-1.565 -0.625,-1.569 -0.615,-1.574 -0.606,-1.579 -0.596,-1.584 -0.587,-1.588 -0.578,-1.592 -0.568,-1.597 -0.558,-1.602 -0.549,-1.606 -0.54,-1.61 -0.53,-1.615 -0.52,-1.619 -0.51,-1.624 -0.501,-1.628 -0.491,-1.632 -0.481,-1.636 -0.472,-1.641 -0.461,-1.644 -0.452,-1.649 -0.442,-1.653 -0.432,-1.657 -0.421,-1.66 -0.412,-1.665 -0.402,-1.669 -0.391,-1.672 -0.382,-1.677 -0.371,-1.68 -0.361,-1.684 -0.351,-1.688 -0.341,-1.691 -0.33,-1.696 -0.32,-1.698 -0.31,-1.703 -0.299,-1.706 -0.289,-1.709 -0.278,-1.713 -0.268,-1.717 -0.257,-1.719 -0.247,-1.723 -0.236,-1.727 -0.225,-1.73 -0.215,-1.733 -0.204,-1.736 -0.193,-1.74 -0.183,-1.743 -0.172,-1.745 -0.161,-1.749 -0.15,-1.752 -0.139,-1.755 -0.128,-1.758 -0.117,-1.761 -0.106,-1.764 -0.095,-1.766 -0.084,-1.77 -0.073,-1.772 -0.062,-1.775 -0.051,-1.778 -0.039,-1.78 -0.029,-1.783 -0.017,-1.785 -0.005,-1.789 0.005,-1.788 0.017,-1.785 0.029,-1.783 0.039,-1.78 0.051,-1.778 0.062,-1.775 0.073,-1.772 0.084,-1.77 0.095,-1.766 0.106,-1.764 0.117,-1.761 0.128,-1.758 0.139,-1.755 0.15,-1.752 0.161,-1.749 0.172,-1.746 0.183,-1.742 0.193,-1.74 0.204,-1.736 0.215,-1.733 0.225,-1.73 0.236,-1.727 0.247,-1.723 0.257,-1.72 0.268,-1.716 0.278,-1.713 0.289,-1.709 0.299,-1.706 0.31,-1.703 0.32,-1.699 0.33,-1.695 0.341,-1.691 0.351,-1.688 0.361,-1.684 0.371,-1.68 0.382,-1.677 0.391,-1.672 0.402,-1.669 0.412,-1.665 0.421,-1.661 0.432,-1.656 0.442,-1.653 0.452,-1.649 0.461,-1.644 0.472,-1.641 0.481,-1.636 0.491,-1.632 0.501,-1.628 0.51,-1.624 0.52,-1.619 0.53,-1.615 0.54,-1.61 0.549,-1.606 0.558,-1.602 0.568,-1.597 0.578,-1.592 0.587,-1.588 0.596,-1.584 0.606,-1.579 0.615,-1.574 0.625,-1.569 0.633,-1.565 0.643,-1.56 0.652,-1.555 0.662,-1.55 0.67,-1.546 0.68,-1.54 0.688,-1.536 0.698,-1.53 0.707,-1.525 0.715,-1.521 0.725,-1.515 0.733,-1.511 0.742,-1.505 0.751,-1.5 0.76,-1.495 0.769,-1.489 0.777,-1.484 0.786,-1.479 0.795,-1.474 0.803,-1.468 0.812,-1.462 0.821,-1.458 0.829,-1.451 0.837,-1.447 0.846,-1.44 0.854,-1.435 0.863,-1.43 0.871,-1.424 0.879,-1.418 0.888,-1.412 0.896,-1.407 0.904,-1.401 0.912,-1.394 0.92,-1.39 0.929,-1.383 0.936,-1.377 0.945,-1.372 0.953,-1.365 0.96,-1.359 0.969,-1.353 0.976,-1.348 0.984,-1.341 0.992,-1.335 1,-1.328 1.008,-1.323 1.015,-1.316 1.023,-1.31 1.031,-1.304 1.039,-1.297 1.046,-1.291 1.053,-1.284 1.061,-1.278 1.069,-1.271 1.076,-1.265 1.083,-1.259 1.091,-1.251 1.098,-1.245 1.106,-1.239 1.113,-1.232 1.12,-1.225 1.127,-1.218 1.135,-1.212 1.142,-1.204 1.149,-1.198 1.155,-1.191 1.163,-1.184 1.171,-1.177 1.177,-1.17 1.184,-1.163 1.19,-1.156 1.198,-1.149 1.205,-1.141 1.211,-1.135 1.219,-1.127 1.225,-1.12 1.232,-1.113 1.238,-1.106 1.245,-1.098 1.252,-1.091 1.259,-1.083 1.264,-1.076 1.272,-1.069 1.278,-1.061 1.284,-1.054 1.291,-1.045 1.297,-1.039 1.304,-1.031 1.31,-1.023 1.316,-1.015 1.322,-1.008 1.329,-0.999 1.335,-0.992 1.341,-0.985 1.347,-0.976 1.354,-0.969 1.359,-0.96 1.365,-0.953 1.371,-0.944 1.378,-0.937 1.383,-0.928 1.389,-0.921 1.395,-0.912 1.401,-0.904 1.407,-0.896 1.412,-0.887 1.418,-0.88 1.424,-0.871 1.429,-0.862 1.435,-0.855 1.441,-0.845 1.446,-0.838 1.452,-0.829 1.457,-0.82 1.463,-0.812 1.468,-0.803 1.474,-0.795 1.479,-0.786 1.484,-0.777 1.489,-0.769 1.495,-0.76 1.5,-0.751 1.505,-0.742 1.51,-0.733 1.516,-0.725 1.52,-0.716 1.526,-0.706 1.53,-0.698 1.536,-0.688 1.54,-0.68 1.546,-0.67 1.55,-0.662 1.555,-0.652 1.56,-0.643 1.564,-0.633 1.57,-0.625 1.574,-0.615 1.579,-0.606 1.583,-0.596 1.588,-0.587 1.592,-0.578 1.598,-0.568 1.601,-0.558 1.606,-0.549 1.611,-0.54 1.615,-0.529 1.619,-0.521 1.623,-0.51 1.628,-0.501 1.632,-0.491 1.636,-0.481 1.641,-0.471 1.644,-0.462 1.649,-0.452 1.653,-0.441 1.656,-0.432 1.661,-0.422 1.665,-0.412 1.669,-0.401 1.672,-0.392 1.677,-0.381 1.68,-0.372 1.684,-0.361 1.688,-0.351 1.691,-0.34 1.695,-0.331 1.699,-0.32 1.702,-0.309 1.706,-0.299 1.71,-0.289 1.712,-0.278 1.717,-0.268 1.72,-0.257 1.723,-0.247 1.726,-0.236 1.73,-0.226 1.733,-0.214 1.736,-0.204 1.74,-0.194 1.743,-0.182 1.745,-0.172 1.749,-0.161 1.752,-0.15 1.755,-0.139 1.758,-0.128 1.761,-0.117 1.763,-0.106 1.767,-0.096 1.769,-0.084 1.773,-0.073 1.774,-0.061 1.778,-0.051 1.78,-0.04 1.783,-0.028 1.786,-0.017 1.788,-0.005 1.788,0.005 1.785,0.017 1.783,0.028 1.781,0.04 1.777,0.051 1.775,0.061 1.772,0.073 1.77,0.084 1.766,0.096 1.764,0.106 1.761,0.117 1.758,0.128 1.755,0.139 1.752,0.15 1.749,0.161 1.746,0.172 1.742,0.182 1.74,0.194 1.736,0.204 1.733,0.214 1.73,0.226 1.727,0.236 1.723,0.247 1.72,0.257 1.716,0.268 1.713,0.278 1.71,0.289 1.705,0.299 1.703,0.309 1.699,0.32 1.695,0.331 1.691,0.34 1.688,0.351 1.684,0.361 1.68,0.372 1.677,0.381 1.672,0.392 1.669,0.401 1.665,0.412 1.66,0.422 1.657,0.432 1.653,0.441 1.649,0.452 1.644,0.461 1.641,0.472 1.636,0.481 1.632,0.491 1.628,0.501 1.624,0.51 1.619,0.521 1.615,0.529 1.61,0.54 1.606,0.549 1.602,0.558 1.597,0.568 1.592,0.578 1.588,0.587 1.584,0.596 1.579,0.606 1.574,0.615 1.569,0.625 1.565,0.633 1.56,0.643 1.555,0.652 1.55,0.662 1.545,0.67 1.541,0.68 1.536,0.688 1.53,0.698 1.526,0.706 1.52,0.716 1.515,0.725 1.511,0.733 1.505,0.742 1.5,0.751 1.495,0.76 1.489,0.769 1.484,0.777 1.479,0.786 1.474,0.795 1.468,0.803 1.462,0.812 1.458,0.82 1.451,0.829 1.447,0.838 1.44,0.845 1.435,0.855 1.43,0.863 1.424,0.87 1.418,0.88 1.412,0.887 1.407,0.896 1.401,0.904 1.394,0.912 1.39,0.921 1.383,0.928 1.377,0.937 1.372,0.944 1.365,0.953 1.359,0.96 1.354,0.969 1.347,0.976 1.341,0.985 1.335,0.992 1.328,0.999 1.323,1.008 1.316,1.015 1.31,1.023 1.304,1.031 1.297,1.039 1.29,1.045 1.285,1.054 1.278,1.061 1.271,1.069 1.265,1.076 1.259,1.083 1.251,1.091 1.246,1.098 1.238,1.106 1.232,1.113 1.225,1.12 1.218,1.127 1.212,1.135 1.204,1.142 1.198,1.148 1.191,1.156 1.184,1.163 1.177,1.17 1.17,1.177 1.163,1.184 1.156,1.191 1.149,1.198 1.141,1.205 1.135,1.211 1.127,1.218 1.12,1.225 1.113,1.232 1.106,1.239 1.098,1.245 1.091,1.251 1.083,1.259 1.076,1.265 1.069,1.271 1.061,1.278 1.054,1.285 1.046,1.291 1.038,1.297 1.031,1.303 1.023,1.31 1.015,1.316 1.008,1.323 1,1.328 0.992,1.335 0.984,1.342 0.976,1.346 0.969,1.354 0.96,1.359 0.953,1.365 0.944,1.372 0.937,1.377 0.929,1.384 0.92,1.389 0.912,1.394 0.904,1.401 0.896,1.407 0.887,1.412 0.88,1.418 0.871,1.424 0.862,1.43 0.855,1.435 0.845,1.44 0.838,1.447 0.829,1.452 0.82,1.457 0.812,1.462 0.803,1.468 0.795,1.474 0.786,1.479 0.777,1.484 0.769,1.49 0.76,1.495 0.751,1.499 0.742,1.505 0.734,1.511 0.724,1.515 0.716,1.521 0.707,1.525 0.697,1.531 0.688,1.535 0.68,1.54 0.671,1.546 0.661,1.55 0.652,1.555 0.643,1.56 0.634,1.565 0.624,1.569 0.615,1.574 0.606,1.579 0.596,1.584 0.587,1.588 0.578,1.592 0.568,1.597 0.558,1.602 0.549,1.606 0.54,1.61 0.53,1.615 0.52,1.62 0.51,1.623 0.501,1.628 0.491,1.632 0.481,1.636 0.472,1.641 0.461,1.644 0.452,1.649 0.442,1.653 0.431,1.656 0.422,1.661 0.412,1.665 0.402,1.669 0.391,1.672 0.382,1.676 0.371,1.681 0.361,1.684 0.351,1.688 0.34,1.691 0.331,1.695 0.32,1.7 0.309,1.702 0.299,1.706 0.289,1.709 0.278,1.713 0.268,1.716 0.258,1.72 0.246,1.724 0.236,1.726 0.226,1.73 0.214,1.733 0.204,1.736 0.194,1.74 0.182,1.743 0.172,1.745 0.161,1.749 0.15,1.752 0.139,1.755 0.128,1.758 0.117,1.761 0.107,1.764 0.095,1.766 0.084,1.77 0.073,1.772 0.062,1.775 0.05,1.778 0.04,1.78 0.028,1.783 0.017,1.785 0.01,1.788 -0.01,1.789 -0.017,1.785 -0.028,1.783 -0.04,1.78 -0.05,1.778 -0.062,1.775 -0.073,1.772 -0.084,1.77 -0.095,1.766 -0.107,1.764 -0.117,1.761 -0.128,1.758 -0.139,1.755 -0.15,1.752 -0.161,1.749 -0.172,1.745 -0.182,1.743 -0.194,1.74 -0.204,1.736 -0.214,1.733 -0.226,1.73 -0.236,1.726 -0.246,1.723 -0.258,1.721 -0.268,1.716 -0.278,1.713 -0.289,1.709 -0.299,1.706 -0.309,1.702 -0.32,1.699 -0.331,1.696 -0.34,1.691 -0.351,1.688 -0.361,1.684 -0.371,1.681 -0.382,1.676 -0.391,1.672 -0.402,1.669 -0.412,1.665 -0.422,1.66 -0.431,1.657 -0.442,1.653 -0.452,1.649 -0.461,1.644 -0.472,1.641 -0.481,1.636 -0.491,1.632 -0.501,1.628 -0.51,1.623 -0.52,1.62 -0.53,1.615 -0.54,1.61 -0.549,1.606 -0.558,1.601 -0.568,1.598 -0.578,1.592 -0.587,1.588 -0.596,1.584 -0.606,1.579 -0.615,1.574 -0.624,1.569 -0.634,1.565 -0.643,1.56 -0.652,1.555 -0.661,1.55 -0.671,1.546 -0.68,1.54 -0.688,1.535 -0.698,1.531 -0.706,1.525 -0.716,1.521 -0.724,1.515 -0.734,1.511 -0.742,1.504 -0.751,1.5 -0.76,1.495 -0.769,1.49 -0.777,1.484 -0.786,1.479 -0.795,1.474 -0.803,1.468 -0.812,1.462 -0.82,1.457 -0.829,1.452 -0.838,1.447 -0.845,1.44 -0.855,1.435 -0.862,1.43 -0.871,1.424 -0.88,1.418 -0.887,1.412 -0.896,1.407 -0.904,1.401 -0.912,1.394 -0.92,1.389 -0.929,1.384 -0.937,1.377 -0.944,1.372 -0.953,1.365 -0.96,1.359 -0.969,1.354 -0.976,1.346 -0.984,1.342 -0.992,1.335 -1,1.328 -1.008,1.323 -1.015,1.316 -1.023,1.31 -1.031,1.303 -1.038,1.297 -1.046,1.291 -1.054,1.285 -1.061,1.278 -1.069,1.271 -1.076,1.265 -1.083,1.259 -1.091,1.251 -1.098,1.245 -1.106,1.239 -1.113,1.232 -1.12,1.225 -1.127,1.218 -1.135,1.211 -1.141,1.205 -1.149,1.198 -1.156,1.191 -1.163,1.184 -1.17,1.177 -1.177,1.17 -1.184,1.163 -1.191,1.156 -1.198,1.148 -1.204,1.142 -1.212,1.135 -1.218,1.127 -1.225,1.12 -1.232,1.113 -1.238,1.106 -1.246,1.098 -1.251,1.091 -1.259,1.083 -1.265,1.076 -1.271,1.069 -1.278,1.061 -1.285,1.054 -1.29,1.045 -1.297,1.039 -1.304,1.03 -1.31,1.024 -1.316,1.015 -1.323,1.008 -1.328,0.999 -1.335,0.992 -1.341,0.985 -1.347,0.976 -1.353,0.968 -1.36,0.961 -1.366,0.953 -1.371,0.944 -1.377,0.937 -1.383,0.928 -1.39,0.921 -1.394,0.912 -1.401,0.904 -1.407,0.896 -1.413,0.887 -1.417,0.879 -1.424,0.871 -1.43,0.863 -1.435,0.855 -1.44,0.845 -1.447,0.838 -1.451,0.829 -1.458,0.82 -1.462,0.812 -1.468,0.803 -1.474,0.795 -1.479,0.786 -1.484,0.777 -1.489,0.769 -1.495,0.76 -1.5,0.751 -1.506,0.742 -1.51,0.733 -1.515,0.725 -1.52,0.715 -1.526,0.707 -1.53,0.698 -1.536,0.688 -1.541,0.68 -1.545,0.67 -1.55,0.662 -1.555,0.652 -1.56,0.643 -1.565,0.633 -1.569,0.625 -1.574,0.615 -1.579,0.606 -1.584,0.596 -1.588,0.587 -1.592,0.578 -1.597,0.568 -1.602,0.558 -1.606,0.549 -1.61,0.54 -1.615,0.529 -1.619,0.521 -1.624,0.51 -1.628,0.501 -1.632,0.491 -1.636,0.481 -1.641,0.472 -1.644,0.461 -1.649,0.452 -1.653,0.441 -1.656,0.432 -1.661,0.422 -1.665,0.412 -1.669,0.401 -1.672,0.392 -1.677,0.381 -1.68,0.372 -1.684,0.361 -1.688,0.351 -1.691,0.34 -1.695,0.331 -1.699,0.32 -1.703,0.309 -1.706,0.299 -1.709,0.289 -1.713,0.278 -1.716,0.268 -1.72,0.257 -1.723,0.247 -1.727,0.236 -1.73,0.225 -1.733,0.215 -1.736,0.204 -1.74,0.194 -1.742,0.182 -1.746,0.172 -1.749,0.161 -1.752,0.15 -1.755,0.139 -1.758,0.128 -1.761,0.117 -1.763,0.106 -1.767,0.096 -1.77,0.084 -1.772,0.073 -1.775,0.061 -1.778,0.051 -1.78,0.04 -1.783,0.028 -1.785,0.017 z m 0,-28.551 1.607,-0.005 1.605,-0.016 1.602,-0.025 1.6,-0.036 1.596,-0.045 1.595,-0.056 1.592,-0.065 1.589,-0.076 1.586,-0.085 1.583,-0.095 1.581,-0.106 1.578,-0.115 1.575,-0.124 1.572,-0.135 1.569,-0.144 1.567,-0.155 1.563,-0.163 1.561,-0.174 1.557,-0.183 1.555,-0.192 1.551,-0.203 1.549,-0.211 1.545,-0.222 1.542,-0.23 1.539,-0.24 1.536,-0.25 1.533,-0.259 1.529,-0.268 1.526,-0.277 1.523,-0.287 1.52,-0.296 1.516,-0.306 1.512,-0.314 1.51,-0.324 1.506,-0.332 1.502,-0.342 1.499,-0.351 1.495,-0.36 1.492,-0.369 1.488,-0.378 1.485,-0.387 1.481,-0.396 1.478,-0.405 1.473,-0.413 1.47,-0.423 1.466,-0.431 1.463,-0.44 1.458,-0.449 1.455,-0.457 1.451,-0.466 1.447,-0.475 1.443,-0.483 1.44,-0.492 1.435,-0.501 1.431,-0.509 1.427,-0.517 1.423,-0.526 1.419,-0.535 1.415,-0.542 1.41,-0.552 1.407,-0.559 1.402,-0.568 1.398,-0.576 1.394,-0.585 1.389,-0.593 1.385,-0.6 1.381,-0.609 1.376,-0.618 1.372,-0.625 1.367,-0.633 1.363,-0.642 1.359,-0.649 1.354,-0.658 1.349,-0.665 1.345,-0.673 1.34,-0.681 1.335,-0.69 1.33,-0.696 1.326,-0.705 1.322,-0.713 1.316,-0.72 1.312,-0.728 1.306,-0.736 1.302,-0.743 1.297,-0.751 1.292,-0.758 1.287,-0.767 1.282,-0.773 1.277,-0.781 1.272,-0.789 1.266,-0.796 1.262,-0.803 1.256,-0.811 1.252,-0.819 1.246,-0.825 1.241,-0.833 1.235,-0.84 1.23,-0.847 1.225,-0.855 1.219,-0.862 1.215,-0.868 1.208,-0.877 1.203,-0.882 1.198,-0.891 1.192,-0.897 1.187,-0.904 1.181,-0.911 1.175,-0.918 1.17,-0.925 1.164,-0.932 1.158,-0.938 1.153,-0.945 1.146,-0.952 1.141,-0.959 1.135,-0.966 1.13,-0.972 1.123,-0.979 1.117,-0.986 1.112,-0.992 1.105,-0.999 1.099,-1.005 1.094,-1.012 1.087,-1.018 1.081,-1.024 1.075,-1.031 1.069,-1.038 1.062,-1.043 1.057,-1.05 1.05,-1.057 1.044,-1.062 1.037,-1.069 1.031,-1.075 1.024,-1.081 1.019,-1.087 1.011,-1.094 1.006,-1.099 0.998,-1.105 0.992,-1.112 0.986,-1.117 0.979,-1.124 0.972,-1.129 0.966,-1.135 0.959,-1.141 0.952,-1.147 0.945,-1.152 0.939,-1.158 0.931,-1.164 0.925,-1.17 0.918,-1.176 0.911,-1.181 0.904,-1.186 0.898,-1.192 0.89,-1.198 0.883,-1.203 0.876,-1.209 0.869,-1.214 0.861,-1.219 0.855,-1.225 0.847,-1.23 0.84,-1.235 0.833,-1.241 0.825,-1.246 0.819,-1.252 0.811,-1.256 0.803,-1.261 0.796,-1.268 0.789,-1.272 0.781,-1.276 0.774,-1.282 0.766,-1.287 0.758,-1.292 0.751,-1.297 0.743,-1.302 0.736,-1.307 0.728,-1.311 0.721,-1.317 0.712,-1.321 0.705,-1.326 0.697,-1.33 0.689,-1.336 0.681,-1.339 0.673,-1.345 0.666,-1.35 0.657,-1.354 0.65,-1.358 0.641,-1.363 0.633,-1.367 0.625,-1.372 0.618,-1.377 0.609,-1.38 0.601,-1.385 0.592,-1.389 0.585,-1.394 0.576,-1.398 0.568,-1.402 0.559,-1.407 0.552,-1.411 0.543,-1.414 0.534,-1.419 0.526,-1.423 0.518,-1.427 0.508,-1.431 0.501,-1.436 0.492,-1.439 0.483,-1.443 0.475,-1.447 0.466,-1.451 0.458,-1.455 0.448,-1.458 0.44,-1.462 0.432,-1.467 0.422,-1.47 0.414,-1.474 0.404,-1.477 0.396,-1.481 0.387,-1.485 0.378,-1.488 0.369,-1.492 0.36,-1.495 0.351,-1.499 0.342,-1.503 0.333,-1.506 0.323,-1.509 0.315,-1.512 0.305,-1.517 0.296,-1.519 0.287,-1.523 0.277,-1.526 0.269,-1.529 0.258,-1.533 0.25,-1.536 0.24,-1.539 0.231,-1.542 0.221,-1.545 0.212,-1.549 0.202,-1.551 0.192,-1.554 0.183,-1.558 0.174,-1.561 0.164,-1.563 0.154,-1.567 0.144,-1.569 0.135,-1.572 0.124,-1.575 0.116,-1.579 0.105,-1.58 0.095,-1.583 0.086,-1.587 0.075,-1.588 0.066,-1.592 0.055,-1.595 0.046,-1.597 0.035,-1.599 0.025,-1.602 0.016,-1.605 0.01,-1.608 -0.01,-1.607 -0.016,-1.605 -0.025,-1.602 -0.035,-1.599 -0.046,-1.597 -0.055,-1.595 -0.066,-1.592 -0.075,-1.588 -0.086,-1.587 -0.095,-1.583 -0.105,-1.581 -0.116,-1.578 -0.124,-1.575 -0.135,-1.572 -0.144,-1.569 -0.154,-1.567 -0.164,-1.563 -0.174,-1.561 -0.183,-1.558 -0.192,-1.554 -0.202,-1.551 -0.212,-1.549 -0.221,-1.545 -0.231,-1.542 -0.24,-1.539 -0.25,-1.536 -0.258,-1.533 -0.269,-1.529 -0.277,-1.526 -0.287,-1.523 -0.296,-1.519 -0.305,-1.517 -0.315,-1.512 -0.323,-1.509 -0.333,-1.506 -0.342,-1.503 -0.351,-1.499 -0.36,-1.495 -0.369,-1.492 -0.378,-1.488 -0.387,-1.485 -0.396,-1.481 -0.404,-1.477 -0.414,-1.474 -0.422,-1.47 -0.432,-1.467 -0.44,-1.462 -0.448,-1.458 -0.458,-1.455 -0.466,-1.451 -0.475,-1.447 -0.483,-1.443 -0.492,-1.439 -0.501,-1.436 -0.508,-1.431 -0.518,-1.427 -0.526,-1.423 -0.534,-1.419 -0.543,-1.414 -0.552,-1.411 -0.559,-1.407 -0.568,-1.402 -0.576,-1.398 -0.585,-1.394 -0.592,-1.389 -0.601,-1.385 -0.609,-1.38 -0.618,-1.377 -0.625,-1.372 -0.633,-1.367 -0.641,-1.363 -0.65,-1.358 -0.657,-1.354 -0.666,-1.35 -0.673,-1.345 -0.681,-1.339 -0.689,-1.336 -0.697,-1.33 -0.705,-1.326 -0.712,-1.321 -0.721,-1.317 -0.728,-1.311 -0.736,-1.307 -0.743,-1.302 -0.751,-1.297 -0.758,-1.292 -0.766,-1.287 -0.774,-1.282 -0.781,-1.276 -0.789,-1.272 -0.796,-1.268 -0.803,-1.261 -0.811,-1.256 -0.819,-1.252 -0.825,-1.246 -0.833,-1.241 -0.84,-1.235 -0.847,-1.23 -0.855,-1.225 -0.861,-1.219 -0.869,-1.214 -0.876,-1.209 -0.883,-1.203 -0.89,-1.198 -0.898,-1.192 -0.904,-1.187 -0.911,-1.18 -0.918,-1.176 -0.925,-1.17 -0.931,-1.164 -0.939,-1.158 -0.945,-1.152 -0.952,-1.147 -0.959,-1.141 -0.966,-1.135 -0.972,-1.129 -0.979,-1.124 -0.986,-1.117 -0.992,-1.112 -0.998,-1.105 -1.006,-1.099 -1.011,-1.094 -1.019,-1.087 -1.024,-1.081 -1.031,-1.075 -1.037,-1.069 -1.044,-1.062 -1.05,-1.057 -1.057,-1.05 -1.062,-1.043 -1.069,-1.038 -1.075,-1.031 -1.081,-1.024 -1.087,-1.018 -1.094,-1.012 -1.099,-1.005 -1.105,-0.999 -1.112,-0.992 -1.117,-0.986 -1.123,-0.979 -1.13,-0.972 -1.135,-0.966 -1.141,-0.959 -1.146,-0.952 -1.153,-0.945 -1.158,-0.939 -1.164,-0.931 -1.17,-0.925 -1.175,-0.918 -1.181,-0.911 -1.187,-0.904 -1.192,-0.897 -1.198,-0.891 -1.203,-0.883 -1.208,-0.876 -1.215,-0.868 -1.219,-0.862 -1.225,-0.855 -1.23,-0.847 -1.235,-0.84 -1.241,-0.833 -1.246,-0.825 -1.252,-0.819 -1.256,-0.811 -1.262,-0.803 -1.266,-0.796 -1.272,-0.789 -1.277,-0.781 -1.282,-0.773 -1.287,-0.767 -1.292,-0.758 -1.297,-0.751 -1.302,-0.743 -1.306,-0.736 -1.312,-0.728 -1.316,-0.72 -1.322,-0.713 -1.326,-0.705 -1.33,-0.696 -1.335,-0.69 -1.34,-0.681 -1.345,-0.673 -1.349,-0.665 -1.354,-0.658 -1.359,-0.649 -1.363,-0.642 -1.367,-0.633 -1.372,-0.625 -1.376,-0.618 -1.381,-0.609 -1.385,-0.601 -1.389,-0.592 -1.394,-0.585 -1.398,-0.576 -1.402,-0.568 -1.407,-0.559 -1.41,-0.552 -1.415,-0.542 -1.419,-0.535 -1.423,-0.526 -1.427,-0.517 -1.431,-0.509 -1.436,-0.501 -1.439,-0.492 -1.443,-0.483 -1.447,-0.475 -1.451,-0.466 -1.455,-0.457 -1.458,-0.449 -1.463,-0.44 -1.466,-0.431 -1.47,-0.423 -1.473,-0.413 -1.478,-0.405 -1.481,-0.396 -1.485,-0.387 -1.488,-0.378 -1.492,-0.369 -1.495,-0.36 -1.499,-0.351 -1.503,-0.342 -1.505,-0.332 -1.51,-0.324 -1.512,-0.314 -1.517,-0.306 -1.519,-0.296 -1.523,-0.287 -1.526,-0.277 -1.529,-0.268 -1.533,-0.259 -1.536,-0.25 -1.539,-0.24 -1.542,-0.231 -1.545,-0.221 -1.549,-0.211 -1.551,-0.203 -1.554,-0.192 -1.558,-0.183 -1.561,-0.174 -1.563,-0.163 -1.566,-0.155 -1.57,-0.144 -1.572,-0.135 -1.575,-0.124 -1.578,-0.115 -1.581,-0.106 -1.583,-0.095 -1.587,-0.085 -1.588,-0.076 -1.592,-0.065 -1.595,-0.056 -1.597,-0.045 -1.599,-0.036 -1.602,-0.025 -1.605,-0.016 -1.607,-0.005 -1.608,0.005 -1.604,0.016 -1.602,0.025 -1.6,0.036 -1.597,0.045 -1.594,0.056 -1.592,0.065 -1.589,0.076 -1.586,0.085 -1.583,0.095 -1.581,0.106 -1.578,0.115 -1.575,0.124 -1.572,0.135 -1.569,0.144 -1.567,0.155 -1.563,0.163 -1.561,0.174 -1.557,0.183 -1.554,0.192 -1.552,0.203 -1.548,0.211 -1.546,0.221 -1.542,0.231 -1.539,0.24 -1.535,0.25 -1.533,0.259 -1.529,0.268 -1.526,0.277 -1.523,0.287 -1.52,0.296 -1.516,0.306 -1.512,0.314 -1.51,0.324 -1.506,0.332 -1.502,0.342 -1.499,0.351 -1.495,0.36 -1.492,0.369 -1.488,0.378 -1.485,0.387 -1.481,0.396 -1.477,0.405 -1.474,0.413 -1.47,0.423 -1.466,0.431 -1.462,0.44 -1.459,0.448 -1.455,0.458 -1.451,0.466 -1.447,0.475 -1.443,0.483 -1.439,0.492 -1.435,0.501 -1.431,0.509 -1.427,0.517 -1.423,0.526 -1.419,0.535 -1.415,0.542 -1.411,0.552 -1.406,0.559 -1.402,0.568 -1.398,0.576 -1.394,0.585 -1.389,0.593 -1.386,0.6 -1.38,0.609 -1.376,0.618 -1.372,0.625 -1.368,0.633 -1.363,0.642 -1.358,0.649 -1.354,0.658 -1.349,0.665 -1.345,0.673 -1.34,0.681 -1.335,0.69 -1.331,0.696 -1.326,0.705 -1.321,0.713 -1.316,0.72 -1.312,0.728 -1.306,0.736 -1.302,0.743 -1.297,0.751 -1.292,0.758 -1.287,0.766 -1.282,0.774 -1.277,0.781 -1.272,0.789 -1.267,0.796 -1.261,0.804 -1.257,0.81 -1.251,0.819 -1.246,0.825 -1.241,0.833 -1.235,0.84 -1.231,0.847 -1.224,0.855 -1.22,0.862 -1.214,0.869 -1.209,0.875 -1.203,0.883 -1.197,0.891 -1.193,0.897 -1.186,0.904 -1.181,0.911 -1.175,0.918 -1.17,0.925 -1.164,0.931 -1.159,0.939 -1.152,0.945 -1.147,0.952 -1.141,0.959 -1.135,0.966 -1.129,0.972 -1.123,0.979 -1.118,0.986 -1.111,0.992 -1.106,0.999 -1.099,1.005 -1.093,1.012 -1.088,1.018 -1.081,1.024 -1.075,1.031 -1.068,1.038 -1.063,1.043 -1.056,1.051 -1.05,1.056 -1.044,1.062 -1.038,1.069 -1.031,1.075 -1.024,1.081 -1.019,1.087 -1.011,1.094 -1.006,1.099 -0.998,1.105 -0.992,1.112 -0.986,1.117 -0.979,1.124 -0.972,1.129 -0.966,1.135 -0.959,1.141 -0.952,1.147 -0.945,1.152 -0.939,1.158 -0.932,1.164 -0.924,1.17 -0.918,1.176 -0.911,1.18 -0.905,1.187 -0.897,1.192 -0.89,1.198 -0.883,1.203 -0.876,1.209 -0.869,1.214 -0.862,1.219 -0.854,1.225 -0.847,1.23 -0.84,1.236 -0.833,1.241 -0.826,1.246 -0.818,1.251 -0.811,1.256 -0.804,1.262 -0.796,1.267 -0.788,1.271 -0.781,1.278 -0.774,1.281 -0.766,1.287 -0.759,1.292 -0.751,1.297 -0.743,1.302 -0.736,1.307 -0.728,1.311 -0.72,1.317 -0.713,1.321 -0.704,1.326 -0.697,1.33 -0.689,1.336 -0.682,1.34 -0.673,1.345 -0.665,1.349 -0.658,1.354 -0.649,1.358 -0.642,1.363 -0.633,1.367 -0.625,1.372 -0.618,1.377 -0.609,1.38 -0.601,1.385 -0.592,1.39 -0.585,1.393 -0.576,1.398 -0.568,1.403 -0.56,1.406 -0.551,1.411 -0.543,1.414 -0.534,1.419 -0.526,1.423 -0.518,1.428 -0.509,1.431 -0.5,1.435 -0.492,1.439 -0.484,1.443 -0.474,1.447 -0.466,1.451 -0.458,1.455 -0.449,1.458 -0.44,1.463 -0.431,1.466 -0.422,1.47 -0.414,1.474 -0.405,1.477 -0.395,1.481 -0.387,1.485 -0.378,1.488 -0.369,1.492 -0.36,1.495 -0.351,1.499 -0.342,1.503 -0.333,1.506 -0.324,1.509 -0.314,1.513 -0.305,1.516 -0.296,1.519 -0.287,1.523 -0.278,1.526 -0.268,1.529 -0.259,1.533 -0.249,1.536 -0.241,1.539 -0.23,1.542 -0.221,1.545 -0.212,1.549 -0.202,1.551 -0.193,1.555 -0.183,1.557 -0.173,1.561 -0.164,1.563 -0.154,1.567 -0.145,1.569 -0.134,1.572 -0.125,1.575 -0.115,1.578 -0.105,1.581 -0.096,1.584 -0.085,1.586 -0.076,1.589 -0.065,1.591 -0.056,1.595 -0.045,1.597 -0.036,1.599 -0.025,1.602 -0.015,1.605 -0.005,1.607 0.005,1.608 0.015,1.604 0.025,1.603 0.036,1.599 0.045,1.597 0.056,1.595 0.065,1.591 0.076,1.589 0.085,1.586 0.096,1.584 0.105,1.581 0.115,1.578 0.125,1.575 0.134,1.572 0.145,1.569 0.154,1.567 0.164,1.563 0.173,1.561 0.183,1.557 0.193,1.555 0.202,1.551 0.212,1.549 0.221,1.545 0.23,1.542 0.241,1.539 0.249,1.536 0.259,1.533 0.268,1.529 0.278,1.526 0.287,1.523 0.296,1.519 0.305,1.516 0.314,1.513 0.324,1.509 0.333,1.506 0.342,1.503 0.351,1.499 0.36,1.495 0.369,1.492 0.378,1.488 0.387,1.485 0.395,1.481 0.405,1.477 0.414,1.474 0.422,1.47 0.431,1.466 0.44,1.463 0.449,1.458 0.458,1.455 0.466,1.451 0.474,1.447 0.484,1.443 0.492,1.439 0.5,1.435 0.509,1.431 0.518,1.428 0.526,1.423 0.534,1.419 0.543,1.414 0.551,1.411 0.56,1.406 0.568,1.403 0.576,1.398 0.585,1.393 0.592,1.39 0.601,1.385 0.609,1.38 0.618,1.377 0.625,1.372 0.633,1.367 0.642,1.363 0.649,1.358 0.658,1.354 0.665,1.35 0.673,1.344 0.682,1.34 0.689,1.336 0.697,1.33 0.704,1.326 0.713,1.321 0.72,1.317 0.728,1.311 0.736,1.307 0.743,1.302 0.751,1.297 0.759,1.292 0.766,1.287 0.774,1.281 0.781,1.277 0.788,1.272 0.796,1.267 0.804,1.262 0.811,1.256 0.818,1.251 0.826,1.246 0.833,1.241 0.84,1.236 0.847,1.23 0.854,1.225 0.862,1.219 0.869,1.214 0.876,1.209 0.883,1.203 0.89,1.198 0.897,1.192 0.905,1.186 0.911,1.181 0.918,1.176 0.924,1.169 0.932,1.165 0.939,1.158 0.945,1.152 0.952,1.147 0.959,1.141 0.966,1.135 0.972,1.129 0.979,1.124 0.986,1.117 0.992,1.112 0.999,1.105 1.005,1.099 1.012,1.094 1.018,1.087 1.024,1.081 1.031,1.075 1.038,1.069 1.044,1.062 1.05,1.056 1.056,1.05 1.063,1.044 1.068,1.038 1.075,1.03 1.081,1.025 1.088,1.018 1.093,1.012 1.099,1.005 1.106,0.999 1.111,0.992 1.118,0.986 1.123,0.979 1.129,0.972 1.135,0.966 1.141,0.959 1.147,0.952 1.152,0.945 1.159,0.938 1.164,0.932 1.17,0.925 1.175,0.918 1.181,0.911 1.186,0.904 1.193,0.897 1.197,0.891 1.203,0.882 1.209,0.876 1.214,0.869 1.22,0.862 1.224,0.855 1.231,0.847 1.235,0.84 1.241,0.833 1.246,0.826 1.251,0.818 1.257,0.81 1.261,0.804 1.267,0.796 1.272,0.789 1.277,0.781 1.282,0.774 1.287,0.766 1.292,0.758 1.297,0.751 1.302,0.743 1.306,0.736 1.312,0.728 1.316,0.72 1.321,0.713 1.326,0.705 1.331,0.696 1.335,0.69 1.34,0.681 1.345,0.673 1.349,0.665 1.354,0.658 1.358,0.649 1.363,0.642 1.368,0.633 1.372,0.625 1.376,0.618 1.38,0.609 1.385,0.6 1.39,0.593 1.394,0.585 1.398,0.576 1.402,0.568 1.406,0.559 1.411,0.552 1.415,0.542 1.419,0.535 1.423,0.526 1.427,0.517 1.431,0.509 1.435,0.501 1.439,0.492 1.443,0.483 1.447,0.475 1.451,0.466 1.455,0.458 1.459,0.448 1.462,0.44 1.466,0.431 1.47,0.423 1.474,0.413 1.477,0.405 1.481,0.396 1.485,0.387 1.488,0.378 1.492,0.369 1.495,0.36 1.499,0.351 1.502,0.342 1.506,0.332 1.51,0.324 1.513,0.314 1.515,0.306 1.52,0.296 1.523,0.287 1.526,0.277 1.529,0.268 1.533,0.259 1.535,0.25 1.539,0.24 1.542,0.23 1.546,0.222 1.548,0.211 1.552,0.203 1.554,0.192 1.557,0.183 1.561,0.174 1.563,0.163 1.567,0.155 1.569,0.144 1.572,0.135 1.575,0.124 1.578,0.115 1.581,0.106 1.583,0.095 1.586,0.085 1.589,0.076 1.592,0.065 1.594,0.056 1.597,0.045 1.6,0.036 1.602,0.025 1.604,0.016 z"
       style="fill:#00adee"
       id="path112" /></g></svg>
